<svg xmlns="http://www.w3.org/2000/svg" id="Layer_1" data-name="Layer 1" version="1.1" viewBox="0.3 137.7 286.6 285.2">
  <defs>
    <style>
      .cls-1 {
        fill: #fff;
        stroke-width: 0px;
      }
    </style>
  </defs>
  <path class="cls-1" d="M98.3,272.4h-61.3c-20.2,0-36.7-16.5-36.7-36.7v-61.3c0-20.2,16.5-36.7,36.7-36.7h61.3c20.2,0,36.7,16.5,36.7,36.7v61.3c0,20.2-16.5,36.7-36.7,36.7ZM37,151.3c-12.7,0-23,10.3-23,23v61.3c0,12.7,10.3,23,23,23h61.3c12.7,0,23-10.3,23-23v-61.3c0-12.7-10.3-23-23-23,0,0-61.3,0-61.3,0Z"/>
  <path class="cls-1" d="M250.2,272.4h-61.3c-20.2,0-36.7-16.5-36.7-36.7v-61.3c0-20.2,16.5-36.7,36.7-36.7h61.3c20.2,0,36.7,16.5,36.7,36.7v61.3c0,20.2-16.5,36.7-36.7,36.7ZM188.9,151.3c-12.7,0-23,10.3-23,23v61.3c0,12.7,10.3,23,23,23h61.3c12.7,0,23-10.3,23-23v-61.3c0-12.7-10.3-23-23-23,0,0-61.3,0-61.3,0Z"/>
  <path class="cls-1" d="M250.2,422.9h-61.3c-20.2,0-36.7-16.5-36.7-36.7v-61.3c0-20.2,16.5-36.7,36.7-36.7h61.3c20.2,0,36.7,16.5,36.7,36.7v61.3c0,20.2-16.5,36.7-36.7,36.7ZM188.9,301.9c-12.7,0-23,10.3-23,23v61.3c0,12.7,10.3,23,23,23h61.3c12.7,0,23-10.3,23-23v-61.3c0-12.7-10.3-23-23-23h-61.3Z"/>
  <path class="cls-1" d="M98.3,422.9h-61.3c-20.2,0-36.7-16.5-36.7-36.7v-61.3c0-20.2,16.5-36.7,36.7-36.7h61.3c20.2,0,36.7,16.5,36.7,36.7v61.3c0,20.2-16.5,36.7-36.7,36.7ZM37,301.9c-12.7,0-23,10.3-23,23v61.3c0,12.7,10.3,23,23,23h61.3c12.7,0,23-10.3,23-23v-61.3c0-12.7-10.3-23-23-23h-61.3Z"/>
</svg>
