<svg width="620" height="484" viewBox="0 0 811 854" fill="none" xmlns="http://www.w3.org/2000/svg">
<g filter="url(#filter0_b_1_7)">
<rect width="342.324" height="574.146" rx="45" transform="matrix(0.948692 0.316203 -0.707138 0.707076 426 338.96)" fill="url(#paint0_linear_1_7)" fill-opacity="0.5"/>
<rect x="0.120777" y="0.511639" width="341.324" height="573.146" rx="44.5" transform="matrix(0.948692 0.316203 -0.707138 0.707076 426.368 339.072)" stroke="white"/>
</g>
<g filter="url(#filter1_d_1_7)">
<g filter="url(#filter2_b_1_7)">
<rect width="342.324" height="574.146" rx="45" transform="matrix(0.948692 0.316203 -0.707138 0.707076 426 271.96)" fill="url(#paint1_linear_1_7)" fill-opacity="0.4"/>
</g>
</g>
<g filter="url(#filter3_d_1_7)">
<g filter="url(#filter4_b_1_7)">
<g clip-path="url(#clip0_1_7)">
<rect width="342.324" height="574.146" rx="45" transform="matrix(0.948692 0.316203 -0.707138 0.707076 426 204.96)" fill="url(#paint2_linear_1_7)" fill-opacity="0.4"/>
<g filter="url(#filter5_d_1_7)">
<line x1="152.336" y1="641.474" x2="230.08" y2="668.348" stroke="white" stroke-opacity="0.8" stroke-width="4" stroke-linecap="round"/>
</g>
</g>
</g>
<g filter="url(#filter6_d_1_7)">
<g clip-path="url(#clip1_1_7)">
<rect width="50" height="50" rx="8" transform="matrix(0.948692 0.316203 -0.707138 0.707076 126.357 539.96)" fill="white" fill-opacity="0.6"/>
<rect width="50" height="50" rx="8" transform="matrix(0.948692 0.316203 -0.707138 0.707076 183.278 558.932)" fill="white" fill-opacity="0.6"/>
<rect width="50" height="50" rx="8" transform="matrix(0.948692 0.316203 -0.707138 0.707076 286.357 590.96)" fill="white" fill-opacity="0.6"/>
<rect width="50" height="50" rx="8" transform="matrix(0.948692 0.316203 -0.707138 0.707076 343.278 609.932)" fill="white" fill-opacity="0.6"/>
</g>
<rect x="0.241554" y="1.02328" width="298.916" height="68.2649" rx="15" transform="matrix(0.948692 0.316203 -0.707138 0.707076 123.423 529.184)" stroke="white" stroke-opacity="0.6" stroke-width="2"/>
</g>
</g>
<g filter="url(#filter7_d_1_7)">
<rect width="50" height="50" rx="8" transform="matrix(0.948692 0.316203 -0.707137 0.707076 231.357 556.96)" fill="#EDEDED"/>
</g>
<g filter="url(#filter8_d_1_7)">
<g clip-path="url(#clip2_1_7)">
<rect width="299.14" height="204.575" rx="16" transform="matrix(0.948692 0.316203 -0.707138 0.707076 294.662 357.065)" fill="url(#paint3_linear_1_7)"/>
<path d="M298.982 397.949C298.759 398.016 298.491 398.071 298.178 398.113C297.865 398.154 297.527 398.173 297.163 398.167C296.792 398.164 296.406 398.132 296.006 398.071C295.605 398.011 295.206 397.914 294.808 397.782C294.462 397.667 294.166 397.527 293.921 397.364C293.676 397.205 293.482 397.026 293.34 396.829C293.205 396.629 293.118 396.411 293.078 396.174C293.042 395.939 293.061 395.69 293.135 395.426C293.209 395.133 293.352 394.822 293.566 394.493C293.783 394.166 294.068 393.827 294.419 393.476L295.376 392.519C295.711 392.184 296.063 391.887 296.432 391.627C296.804 391.365 297.184 391.141 297.57 390.956C297.922 390.794 298.275 390.66 298.629 390.555C298.987 390.451 299.339 390.375 299.686 390.327C300.089 390.277 300.481 390.268 300.863 390.301C301.245 390.333 301.609 390.408 301.955 390.523C302.487 390.7 302.9 390.904 303.193 391.135C303.491 391.368 303.683 391.623 303.768 391.9C303.85 392.181 303.832 392.482 303.712 392.803C303.597 393.126 303.394 393.464 303.104 393.819L301.327 393.226C301.467 393.045 301.571 392.878 301.638 392.724C301.71 392.572 301.737 392.433 301.719 392.307C301.698 392.166 301.619 392.041 301.481 391.931C301.351 391.819 301.158 391.72 300.903 391.635C300.765 391.589 300.615 391.56 300.453 391.549C300.291 391.538 300.123 391.545 299.95 391.569C299.719 391.603 299.475 391.668 299.219 391.763C298.967 391.86 298.71 391.987 298.448 392.145C298.246 392.266 298.041 392.408 297.832 392.571C297.628 392.735 297.424 392.918 297.221 393.121L296.254 394.088C296 394.342 295.789 394.582 295.623 394.805C295.461 395.031 295.341 395.238 295.262 395.426C295.22 395.537 295.191 395.643 295.176 395.745C295.168 395.846 295.174 395.94 295.195 396.029C295.23 396.178 295.311 396.31 295.438 396.426C295.572 396.539 295.754 396.637 295.985 396.718C296.127 396.765 296.276 396.804 296.43 396.834C296.585 396.864 296.737 396.885 296.887 396.896C297.037 396.907 297.175 396.91 297.302 396.905C297.435 396.898 297.547 396.882 297.637 396.856L298.919 395.582L297.356 395.061L298.371 394.046L301.75 395.172L298.982 397.949ZM303.018 400.518C302.478 400.338 302.053 400.109 301.744 399.83C301.435 399.55 301.238 399.244 301.151 398.91C301.061 398.579 301.082 398.232 301.216 397.868C301.356 397.503 301.602 397.144 301.954 396.793L302.147 396.6C302.547 396.2 302.995 395.864 303.492 395.592C303.993 395.316 304.514 395.109 305.055 394.972C305.596 394.834 306.14 394.768 306.687 394.775C307.234 394.781 307.752 394.865 308.241 395.028C308.747 395.197 309.133 395.409 309.401 395.666C309.677 395.921 309.84 396.208 309.891 396.526C309.938 396.842 309.873 397.183 309.697 397.55C309.523 397.913 309.245 398.287 308.862 398.67L308.291 399.24L303.531 397.654L303.517 397.668C303.368 397.898 303.276 398.093 303.242 398.254C303.212 398.411 303.225 398.568 303.282 398.724C303.34 398.886 303.446 399.03 303.6 399.159C303.753 399.288 303.956 399.394 304.206 399.477C304.561 399.595 304.955 399.66 305.387 399.671C305.82 399.682 306.24 399.622 306.648 399.492L306.824 400.517C306.353 400.683 305.771 400.781 305.077 400.811C304.383 400.842 303.697 400.745 303.018 400.518ZM307.14 396.111C306.937 396.044 306.724 396.009 306.5 396.008C306.28 396.003 306.057 396.03 305.832 396.088C305.603 396.145 305.375 396.228 305.15 396.337C304.925 396.447 304.706 396.58 304.492 396.737L307.449 397.722L307.555 397.616C307.697 397.474 307.796 397.329 307.853 397.18C307.909 397.031 307.924 396.89 307.896 396.756C307.865 396.626 307.787 396.505 307.661 396.395C307.543 396.282 307.369 396.188 307.14 396.111ZM317.506 396.537L316.225 397.818L318.845 398.691L317.854 399.682L315.234 398.809L312.986 401.057C312.796 401.247 312.664 401.416 312.592 401.563C312.527 401.709 312.511 401.837 312.545 401.947C312.576 402.061 312.651 402.159 312.77 402.241C312.893 402.325 313.05 402.399 313.24 402.462C313.379 402.509 313.524 402.551 313.676 402.588C313.833 402.628 313.986 402.662 314.136 402.69C314.279 402.721 314.415 402.747 314.543 402.768C314.676 402.791 314.792 402.808 314.89 402.819L314.142 403.801C313.961 403.814 313.766 403.813 313.556 403.799C313.348 403.781 313.137 403.753 312.921 403.716C312.705 403.678 312.486 403.631 312.266 403.575C312.047 403.523 311.838 403.464 311.639 403.398C311.254 403.27 310.941 403.116 310.699 402.937C310.465 402.756 310.319 402.548 310.259 402.313C310.192 402.08 310.221 401.821 310.345 401.536C310.472 401.248 310.708 400.931 311.053 400.586L313.431 398.208L311.829 397.674L312.82 396.683L314.422 397.217L315.703 395.936L317.506 396.537ZM332.336 407.223C331.952 407.567 331.529 407.851 331.068 408.076C330.612 408.302 330.136 408.466 329.643 408.567C329.149 408.669 328.644 408.707 328.128 408.681C327.615 408.652 327.112 408.556 326.619 408.391C326.23 408.262 325.906 408.104 325.648 407.919C325.396 407.732 325.21 407.524 325.088 407.294C324.978 407.081 324.921 406.85 324.918 406.6C324.919 406.351 324.967 406.092 325.063 405.823C325.163 405.556 325.314 405.275 325.516 404.982C325.722 404.689 325.976 404.392 326.279 404.089L327.226 403.141C327.51 402.858 327.809 402.599 328.125 402.364C328.443 402.127 328.772 401.919 329.112 401.74C329.518 401.518 329.938 401.341 330.372 401.206C330.807 401.072 331.239 400.979 331.669 400.929C332.047 400.892 332.419 400.891 332.786 400.928C333.161 400.963 333.524 401.038 333.874 401.155C334.393 401.328 334.798 401.536 335.091 401.78C335.388 402.025 335.577 402.296 335.659 402.594C335.742 402.893 335.718 403.216 335.589 403.564C335.46 403.912 335.234 404.276 334.91 404.658L333.094 404.053C333.286 403.838 333.427 403.64 333.515 403.459C333.608 403.279 333.645 403.115 333.626 402.967C333.6 402.821 333.515 402.69 333.372 402.573C333.237 402.455 333.035 402.351 332.767 402.262C332.624 402.214 332.479 402.181 332.331 402.162C332.187 402.144 332.041 402.14 331.892 402.151C331.637 402.169 331.375 402.23 331.105 402.333C330.842 402.434 330.578 402.568 330.315 402.734C330.11 402.863 329.905 403.014 329.699 403.185C329.495 403.354 329.291 403.541 329.084 403.748L328.127 404.705C327.847 404.985 327.615 405.243 327.432 405.478C327.256 405.712 327.129 405.925 327.051 406.118C326.999 406.251 326.97 406.375 326.965 406.489C326.965 406.605 326.989 406.71 327.039 406.804C327.092 406.907 327.173 406.999 327.284 407.079C327.402 407.157 327.549 407.225 327.726 407.284C327.964 407.364 328.201 407.412 328.436 407.431C328.672 407.449 328.905 407.432 329.135 407.38C329.366 407.328 329.596 407.239 329.825 407.114C330.055 406.988 330.284 406.822 330.514 406.615L332.336 407.223ZM341.983 406.275C342.256 406.365 342.492 406.464 342.692 406.569C342.9 406.673 343.059 406.764 343.169 406.844L341.564 408.094C341.369 407.973 341.155 407.861 340.923 407.758C340.7 407.653 340.475 407.564 340.25 407.489C340.017 407.411 339.789 407.356 339.566 407.325C339.352 407.292 339.14 407.282 338.932 407.294C338.684 407.306 338.442 407.346 338.207 407.413C337.972 407.481 337.739 407.576 337.509 407.696L334.367 410.838L332.564 410.237L337.794 405.007L339.474 405.567L338.806 406.331L338.703 406.451C339.285 406.25 339.858 406.131 340.424 406.096C340.992 406.058 341.512 406.118 341.983 406.275ZM342.902 413.812C342.362 413.632 341.937 413.402 341.628 413.123C341.319 412.844 341.122 412.537 341.035 412.203C340.945 411.873 340.966 411.525 341.099 411.162C341.24 410.796 341.486 410.438 341.838 410.086L342.031 409.893C342.43 409.494 342.879 409.158 343.376 408.885C343.877 408.609 344.398 408.403 344.939 408.265C345.48 408.128 346.024 408.062 346.571 408.068C347.118 408.074 347.636 408.159 348.125 408.322C348.631 408.49 349.017 408.703 349.285 408.96C349.56 409.215 349.724 409.501 349.775 409.819C349.822 410.135 349.757 410.477 349.58 410.843C349.407 411.207 349.129 411.58 348.746 411.964L348.175 412.534L343.415 410.947L343.4 410.962C343.252 411.191 343.16 411.387 343.126 411.547C343.096 411.705 343.109 411.861 343.166 412.018C343.224 412.179 343.33 412.324 343.483 412.452C343.637 412.581 343.84 412.687 344.09 412.771C344.445 412.889 344.839 412.954 345.271 412.965C345.704 412.976 346.124 412.916 346.532 412.785L346.708 413.811C346.237 413.976 345.655 414.074 344.961 414.105C344.267 414.136 343.581 414.038 342.902 413.812ZM347.024 409.405C346.821 409.337 346.608 409.303 346.384 409.301C346.164 409.297 345.941 409.323 345.716 409.381C345.486 409.438 345.259 409.521 345.034 409.631C344.809 409.741 344.59 409.874 344.376 410.03L347.333 411.016L347.439 410.909C347.581 410.768 347.68 410.622 347.737 410.474C347.793 410.325 347.808 410.184 347.78 410.05C347.749 409.919 347.671 409.799 347.545 409.688C347.427 409.576 347.253 409.481 347.024 409.405ZM350.037 412.523C350.433 412.126 350.856 411.784 351.306 411.496C351.76 411.209 352.224 410.987 352.697 410.832C353.17 410.676 353.639 410.589 354.105 410.573C354.576 410.558 355.029 410.623 355.466 410.769C355.834 410.891 356.106 411.048 356.282 411.24C356.467 411.431 356.577 411.652 356.613 411.905L359.276 409.241L361.085 409.845L353.66 417.269L352.033 416.726L352.488 416.15C352.065 416.279 351.647 416.351 351.236 416.364C350.825 416.377 350.423 416.319 350.029 416.187C349.601 416.045 349.283 415.85 349.073 415.604C348.871 415.357 348.771 415.076 348.773 414.763C348.771 414.449 348.868 414.11 349.065 413.746C349.265 413.378 349.555 413.005 349.935 412.624L350.037 412.523ZM351.738 413.225C351.519 413.444 351.338 413.657 351.195 413.863C351.06 414.067 350.98 414.257 350.954 414.433C350.924 414.612 350.958 414.772 351.055 414.912C351.151 415.051 351.327 415.164 351.582 415.249C351.894 415.352 352.201 415.388 352.504 415.356C352.811 415.325 353.113 415.243 353.408 415.109L355.525 412.992C355.581 412.775 355.556 412.584 355.449 412.419C355.346 412.252 355.141 412.117 354.834 412.014C354.579 411.929 354.319 411.898 354.053 411.922C353.796 411.943 353.539 412.006 353.285 412.11C353.028 412.218 352.777 412.36 352.531 412.536C352.289 412.709 352.059 412.905 351.84 413.124L351.738 413.225ZM361.258 412.828L365.078 414.101L360.94 418.239L362.84 418.872L361.748 419.964L356.028 418.058L357.12 416.965L359.118 417.631L362.158 414.591L360.161 413.925L361.258 412.828ZM364.465 412.112C364.568 412.008 364.687 411.921 364.821 411.85C364.963 411.777 365.112 411.724 365.267 411.689C365.419 411.658 365.576 411.646 365.737 411.653C365.902 411.66 366.062 411.69 366.218 411.742C366.538 411.849 366.723 412.001 366.773 412.198C366.832 412.393 366.756 412.596 366.546 412.805C366.337 413.015 366.069 413.156 365.744 413.227C365.426 413.298 365.107 413.279 364.787 413.173C364.631 413.121 364.506 413.056 364.412 412.977C364.322 412.9 364.264 412.814 364.238 412.719C364.208 412.627 364.211 412.53 364.246 412.425C364.289 412.319 364.362 412.215 364.465 412.112ZM373.343 415.148L372.062 416.429L374.682 417.302L373.691 418.293L371.071 417.42L368.824 419.667C368.633 419.858 368.502 420.026 368.429 420.174C368.364 420.32 368.349 420.448 368.382 420.558C368.413 420.671 368.488 420.769 368.607 420.852C368.731 420.936 368.887 421.01 369.078 421.073C369.216 421.119 369.361 421.161 369.514 421.199C369.67 421.239 369.824 421.273 369.974 421.301C370.117 421.332 370.252 421.357 370.381 421.379C370.513 421.402 370.629 421.419 370.727 421.43L369.979 422.411C369.799 422.424 369.604 422.424 369.393 422.409C369.186 422.392 368.974 422.364 368.758 422.327C368.542 422.289 368.324 422.242 368.104 422.186C367.884 422.134 367.675 422.075 367.476 422.009C367.091 421.881 366.778 421.727 366.537 421.548C366.303 421.367 366.156 421.159 366.097 420.924C366.03 420.691 366.058 420.432 366.182 420.147C366.309 419.859 366.545 419.542 366.89 419.197L369.268 416.819L367.667 416.285L368.658 415.294L370.259 415.828L371.54 414.547L373.343 415.148Z" fill="black"/>
<rect x="0.120777" y="0.511639" width="245.494" height="127.511" rx="3.5" transform="matrix(0.948692 0.316203 -0.707138 0.707076 271.977 412.945)" fill="url(#paint4_linear_1_7)" stroke="white"/>
</g>
</g>
<g filter="url(#filter9_d_1_7)">
<mask id="path-16-inside-1_1_7" fill="white">
<path fill-rule="evenodd" clip-rule="evenodd" d="M563.701 258.941C569.949 252.692 568.219 245.362 559.836 242.568L432.179 200.02C423.796 197.225 411.934 200.025 405.686 206.274L290.314 321.635C284.066 327.883 285.796 335.213 294.179 338.008L537.662 419.161C546.045 421.956 557.907 419.156 564.155 412.907L617.994 359.073C624.243 352.825 622.513 345.495 614.13 342.701L528.661 314.214C520.278 311.42 518.548 304.089 524.796 297.841L563.701 258.941Z"/>
</mask>
<path fill-rule="evenodd" clip-rule="evenodd" d="M563.701 258.941C569.949 252.692 568.219 245.362 559.836 242.568L432.179 200.02C423.796 197.225 411.934 200.025 405.686 206.274L290.314 321.635C284.066 327.883 285.796 335.213 294.179 338.008L537.662 419.161C546.045 421.956 557.907 419.156 564.155 412.907L617.994 359.073C624.243 352.825 622.513 345.495 614.13 342.701L528.661 314.214C520.278 311.42 518.548 304.089 524.796 297.841L563.701 258.941Z" fill="url(#paint5_linear_1_7)"/>
<path d="M524.796 297.841L523.848 297.525L524.796 297.841ZM431.472 200.727L559.129 243.275L560.543 241.861L432.886 199.312L431.472 200.727ZM291.263 321.951L406.634 206.59L404.737 205.957L289.366 321.319L291.263 321.951ZM538.369 418.454L294.886 337.3L293.472 338.715L536.955 419.869L538.369 418.454ZM617.046 358.757L563.207 412.591L565.104 413.224L618.943 359.389L617.046 358.757ZM614.837 341.994L529.368 313.507L527.954 314.921L613.422 343.408L614.837 341.994ZM525.745 298.157L564.649 259.257L562.752 258.624L523.848 297.525L525.745 298.157ZM529.368 313.507C521.509 310.887 519.887 304.015 525.745 298.157L523.848 297.525C517.209 304.164 519.047 311.952 527.954 314.921L529.368 313.507ZM618.943 359.389C625.582 352.751 623.744 344.962 614.837 341.994L613.422 343.408C621.282 346.027 622.904 352.899 617.046 358.757L618.943 359.389ZM536.955 419.869C545.862 422.837 558.465 419.862 565.104 413.224L563.207 412.591C557.349 418.449 546.228 421.074 538.369 418.454L536.955 419.869ZM289.366 321.319C282.726 327.957 284.565 335.746 293.472 338.715L294.886 337.3C287.027 334.681 285.405 327.809 291.263 321.951L289.366 321.319ZM559.129 243.275C566.988 245.895 568.61 252.767 562.752 258.624L564.649 259.257C571.288 252.618 569.45 244.83 560.543 241.861L559.129 243.275ZM432.886 199.312C423.979 196.344 411.376 199.319 404.737 205.957L406.634 206.59C412.493 200.732 423.613 198.107 431.472 200.727L432.886 199.312Z" fill="white" mask="url(#path-16-inside-1_1_7)"/>
</g>
<g filter="url(#filter10_d_1_7)">
<rect width="162.488" height="147.072" rx="16" transform="matrix(0.948692 0.316203 -0.707138 0.707076 412 126.96)" fill="url(#paint6_linear_1_7)"/>
<g filter="url(#filter11_d_1_7)">
<rect x="0.241554" y="1.02328" width="70.5944" height="31.9396" rx="15.9698" transform="matrix(0.948692 0.316203 -0.707138 0.707076 409.736 221.184)" fill="#EFBDBD" stroke="white" stroke-width="2"/>
</g>
<g filter="url(#filter12_d_1_7)">
<ellipse cx="15.7954" cy="14.0599" rx="15.7954" ry="14.0599" transform="matrix(0.948692 0.316203 -0.707138 0.707076 410 221.96)" fill="white"/>
</g>
</g>
<path d="M314.335 228.494L285 147.897L515.755 64.1643L557.5 178.46L314.335 228.494Z" fill="url(#paint7_linear_1_7)"/>
<g filter="url(#filter13_d_1_7)">
<rect width="131.452" height="105.354" rx="16" transform="matrix(0.948692 0.316203 -0.707138 0.707076 399.5 68.9603)" fill="url(#paint8_linear_1_7)"/>
<g filter="url(#filter14_d_1_7)">
<g clip-path="url(#clip3_1_7)">
<rect width="50" height="50" rx="8" transform="matrix(0.948692 0.316203 -0.707138 0.707076 402.732 74.9603)" fill="white"/>
<path d="M401.789 109.078L399.373 98.8448L415.931 94.9361" stroke="black" stroke-width="2" stroke-linecap="round" stroke-linejoin="round"/>
</g>
</g>
</g>
<g filter="url(#filter15_d_1_7)">
<g filter="url(#filter16_b_1_7)">
<rect width="323.669" height="74.9501" transform="matrix(0.948692 0.316203 -0.707138 0.707076 219 281.96)" fill="#646464" fill-opacity="0.62"/>
<rect width="323.669" height="74.9501" transform="matrix(0.948692 0.316203 -0.707138 0.707076 219 281.96)" stroke="white" stroke-width="2"/>
<rect x="0.120777" y="0.51164" width="11" height="11" transform="matrix(0.948692 0.316203 -0.707138 0.707076 217.919 275.932)" fill="black" stroke="white"/>
<rect x="0.120777" y="0.51164" width="11" height="11" transform="matrix(0.948692 0.316203 -0.707138 0.707076 525.295 378.382)" fill="black" stroke="white"/>
<rect x="0.120777" y="0.51164" width="11" height="11" transform="matrix(0.948692 0.316203 -0.707138 0.707076 472.259 431.413)" fill="black" stroke="white"/>
<rect x="0.120777" y="0.51164" width="11" height="11" transform="matrix(0.948692 0.316203 -0.707138 0.707076 164.883 328.963)" fill="black" stroke="white"/>
<path d="M220.19 318.889L215.687 317.388L212 319.63L210.286 319.059L224.695 310.457L226.131 310.935L220.357 322.416L218.652 321.847L220.19 318.889ZM217.263 316.431L220.848 317.626L223.433 312.669L217.263 316.431ZM233.419 312.628L238.542 314.335L229.04 323.837L232.31 324.927L231.206 326.032L222.812 323.234L223.917 322.129L227.326 323.265L235.716 314.876L232.307 313.739L233.419 312.628ZM247.278 319.015L245.468 320.824L249.285 322.096L248.298 323.083L244.481 321.811L240.42 325.871C240.13 326.161 239.94 326.417 239.85 326.639C239.76 326.86 239.747 327.055 239.809 327.224C239.867 327.396 239.984 327.543 240.16 327.663C240.343 327.785 240.561 327.888 240.814 327.973C240.999 328.034 241.198 328.091 241.409 328.143C241.625 328.191 241.84 328.235 242.055 328.276C242.263 328.315 242.459 328.349 242.643 328.38C242.837 328.408 242.996 328.43 243.12 328.447L242.456 329.431C242.249 329.448 242.019 329.448 241.764 329.431C241.514 329.409 241.253 329.374 240.98 329.326C240.702 329.283 240.418 329.225 240.128 329.153C239.844 329.083 239.569 329.003 239.304 328.915C238.859 328.767 238.488 328.582 238.191 328.36C237.905 328.135 237.723 327.872 237.646 327.571C237.565 327.273 237.602 326.936 237.757 326.558C237.923 326.178 238.237 325.757 238.697 325.297L242.758 321.237L240.127 320.36L241.114 319.372L243.745 320.249L245.554 318.44L247.278 319.015ZM249.624 332.355C248.92 332.12 248.362 331.814 247.948 331.437C247.541 331.062 247.288 330.643 247.191 330.181C247.093 329.719 247.148 329.228 247.355 328.707C247.562 328.187 247.926 327.667 248.446 327.147L248.736 326.857C249.339 326.254 250.008 325.759 250.741 325.371C251.48 324.979 252.231 324.689 252.994 324.501C253.747 324.317 254.483 324.227 255.202 324.234C255.926 324.242 256.576 324.342 257.15 324.533C257.873 324.774 258.408 325.078 258.757 325.446C259.116 325.811 259.312 326.217 259.343 326.663C259.37 327.114 259.246 327.592 258.973 328.096C258.705 328.602 258.311 329.115 257.791 329.636L257.218 330.209L250.057 327.822L250.008 327.87C249.688 328.248 249.464 328.6 249.336 328.926C249.214 329.253 249.18 329.567 249.234 329.868C249.28 330.184 249.43 330.47 249.684 330.727C249.938 330.983 250.297 331.189 250.76 331.343C251.371 331.547 252.007 331.636 252.667 331.61C253.326 331.585 253.966 331.472 254.584 331.274L255.024 332.23C254.313 332.496 253.476 332.666 252.515 332.738C251.564 332.808 250.6 332.68 249.624 332.355ZM256.1 325.583C255.755 325.467 255.379 325.407 254.973 325.4C254.573 325.39 254.159 325.433 253.732 325.53C253.301 325.632 252.865 325.787 252.425 325.997C251.996 326.203 251.575 326.468 251.162 326.791L256.554 328.588L256.616 328.526C256.846 328.296 257.034 328.03 257.179 327.728C257.329 327.422 257.395 327.137 257.378 326.874C257.362 326.611 257.253 326.366 257.051 326.139C256.856 325.914 256.539 325.729 256.1 325.583ZM270.908 329.119C271.223 329.224 271.534 329.349 271.842 329.494C272.155 329.642 272.371 329.772 272.489 329.885L271.007 331.058C270.729 330.891 270.45 330.746 270.17 330.622C269.902 330.496 269.603 330.378 269.276 330.269C268.856 330.129 268.437 330.041 268.019 330.006C267.606 329.967 267.199 329.978 266.798 330.041C266.441 330.094 266.081 330.186 265.72 330.317C265.369 330.446 265.023 330.606 264.681 330.8L259.889 335.592L258.165 335.017L265.637 327.546L267.268 328.09L266.341 329.116L266.164 329.305C266.981 329.031 267.791 328.872 268.594 328.826C269.408 328.778 270.179 328.876 270.908 329.119ZM268.125 338.337L275.597 330.866L277.135 331.378L276.15 332.523C276.455 332.416 276.758 332.327 277.06 332.256C277.373 332.182 277.676 332.13 277.971 332.099C278.414 332.05 278.848 332.045 279.272 332.082C279.707 332.116 280.122 332.196 280.515 332.321C281.04 332.496 281.461 332.71 281.776 332.962C282.098 333.217 282.293 333.512 282.361 333.847C282.429 334.183 282.361 334.56 282.158 334.977C281.966 335.391 281.621 335.847 281.124 336.344L276.38 341.088L274.666 340.517L279.382 335.801C279.714 335.469 279.945 335.172 280.076 334.909C280.208 334.646 280.249 334.411 280.2 334.205C280.145 333.996 280.008 333.812 279.788 333.653C279.575 333.496 279.286 333.357 278.922 333.235C278.607 333.13 278.279 333.067 277.938 333.045C277.602 333.019 277.262 333.026 276.918 333.065C276.632 333.104 276.341 333.164 276.047 333.244C275.759 333.326 275.476 333.428 275.198 333.55L269.839 338.908L268.125 338.337ZM295.252 337.472C294.91 337.806 294.508 338.092 294.046 338.331C293.59 338.566 293.102 338.744 292.585 338.866C292.337 338.925 292.081 338.971 291.815 339.006C291.55 339.04 291.282 339.061 291.011 339.069C291.246 339.295 291.42 339.537 291.532 339.795C291.655 340.051 291.713 340.319 291.705 340.599C291.691 340.876 291.612 341.157 291.468 341.44C291.331 341.726 291.122 342.009 290.841 342.29C290.385 342.746 289.866 343.113 289.283 343.391C288.706 343.671 288.106 343.867 287.484 343.979C286.851 344.093 286.21 344.129 285.563 344.085C284.92 344.036 284.302 343.913 283.709 343.715C283.103 343.513 282.6 343.263 282.2 342.964C281.805 342.666 281.538 342.332 281.4 341.96C281.25 341.591 281.241 341.193 281.373 340.764C281.505 340.335 281.802 339.891 282.262 339.431C282.543 339.15 282.86 338.903 283.214 338.689C283.572 338.471 283.956 338.289 284.365 338.143C284.77 338.002 285.194 337.894 285.638 337.821C286.081 337.748 286.531 337.714 286.988 337.719C286.802 337.51 286.664 337.289 286.575 337.057C286.491 336.82 286.462 336.577 286.489 336.328C286.511 336.084 286.588 335.833 286.721 335.577C286.854 335.321 287.045 335.068 287.294 334.819C287.731 334.382 288.219 334.026 288.757 333.751C289.3 333.472 289.865 333.274 290.452 333.156C291.032 333.037 291.626 332.995 292.232 333.031C292.844 333.07 293.437 333.185 294.012 333.376C294.58 333.565 295.046 333.804 295.41 334.09C295.773 334.377 296.017 334.698 296.14 335.052C296.264 335.406 296.255 335.79 296.113 336.203C295.976 336.612 295.689 337.035 295.252 337.472ZM289.155 341.691C289.435 341.41 289.628 341.131 289.734 340.853C289.845 340.577 289.871 340.316 289.813 340.069C289.75 339.827 289.604 339.607 289.375 339.408C289.152 339.211 288.853 339.049 288.476 338.924C288.087 338.794 287.689 338.723 287.282 338.71C286.874 338.697 286.477 338.736 286.089 338.828C285.696 338.924 285.321 339.069 284.962 339.263C284.61 339.458 284.294 339.697 284.013 339.977C283.723 340.267 283.521 340.547 283.408 340.816C283.306 341.083 283.288 341.332 283.354 341.562C283.42 341.793 283.569 342.002 283.801 342.19C284.039 342.38 284.356 342.541 284.751 342.673C285.128 342.798 285.516 342.872 285.913 342.894C286.311 342.916 286.703 342.887 287.088 342.807C287.467 342.724 287.831 342.591 288.18 342.407C288.54 342.22 288.865 341.981 289.155 341.691ZM293.508 336.918C293.761 336.665 293.935 336.413 294.029 336.162C294.13 335.913 294.16 335.678 294.119 335.455C294.067 335.236 293.943 335.038 293.748 334.862C293.558 334.682 293.296 334.537 292.962 334.426C292.629 334.314 292.284 334.255 291.93 334.247C291.58 334.235 291.23 334.272 290.88 334.358C290.531 334.444 290.192 334.576 289.865 334.756C289.548 334.933 289.258 335.152 288.996 335.415C288.734 335.677 288.549 335.931 288.442 336.178C288.346 336.422 288.326 336.652 288.383 336.867C288.429 337.085 288.546 337.281 288.735 337.454C288.935 337.625 289.201 337.766 289.535 337.877C289.862 337.986 290.204 338.048 290.56 338.063C290.921 338.072 291.279 338.035 291.635 337.951C291.98 337.87 292.314 337.742 292.637 337.567C292.96 337.392 293.25 337.176 293.508 336.918Z" fill="white"/>
<g filter="url(#filter17_d_1_7)">
<g clip-path="url(#clip4_1_7)">
<rect width="48" height="48" rx="12" transform="matrix(0.948692 0.316203 -0.707138 0.707076 443.185 368.938)" fill="white"/>
<g clip-path="url(#clip5_1_7)">
<path d="M443.084 398.13C447.276 399.527 453.206 398.127 456.331 395.003C459.455 391.879 458.59 388.214 454.398 386.817C450.207 385.42 444.276 386.82 441.151 389.944C438.027 393.068 438.892 396.733 443.084 398.13Z" stroke="black" stroke-width="2" stroke-linecap="round" stroke-linejoin="round"/>
<path d="M451.157 402.706L450.106 398.255" stroke="black" stroke-width="2" stroke-linecap="round" stroke-linejoin="round"/>
</g>
</g>
</g>
</g>
</g>
<path d="M332.142 142.534L302.808 61.9369L472.223 0.529664L513 109.96L332.142 142.534Z" fill="url(#paint9_linear_1_7)"/>
<path d="M200.313 592.896L115.824 360.765L185.835 336.017L274 573.96L200.313 592.896Z" fill="url(#paint10_linear_1_7)"/>
<defs>
<filter id="filter0_b_1_7" x="-20" y="298.96" width="810.76" height="594.208" filterUnits="userSpaceOnUse" color-interpolation-filters="sRGB">
<feFlood flood-opacity="0" result="BackgroundImageFix"/>
<feGaussianBlur in="BackgroundImageFix" stdDeviation="20"/>
<feComposite in2="SourceAlpha" operator="in" result="effect1_backgroundBlur_1_7"/>
<feBlend mode="normal" in="SourceGraphic" in2="effect1_backgroundBlur_1_7" result="shape"/>
</filter>
<filter id="filter1_d_1_7" x="0" y="251.96" width="810.76" height="594.208" filterUnits="userSpaceOnUse" color-interpolation-filters="sRGB">
<feFlood flood-opacity="0" result="BackgroundImageFix"/>
<feColorMatrix in="SourceAlpha" type="matrix" values="0 0 0 0 0 0 0 0 0 0 0 0 0 0 0 0 0 0 127 0" result="hardAlpha"/>
<feOffset dx="20" dy="20"/>
<feGaussianBlur stdDeviation="20"/>
<feColorMatrix type="matrix" values="0 0 0 0 0 0 0 0 0 0 0 0 0 0 0 0 0 0 0.25 0"/>
<feBlend mode="normal" in2="BackgroundImageFix" result="effect1_dropShadow_1_7"/>
<feBlend mode="normal" in="SourceGraphic" in2="effect1_dropShadow_1_7" result="shape"/>
</filter>
<filter id="filter2_b_1_7" x="-20" y="231.96" width="810.76" height="594.208" filterUnits="userSpaceOnUse" color-interpolation-filters="sRGB">
<feFlood flood-opacity="0" result="BackgroundImageFix"/>
<feGaussianBlur in="BackgroundImageFix" stdDeviation="20"/>
<feComposite in2="SourceAlpha" operator="in" result="effect1_backgroundBlur_1_7"/>
<feBlend mode="normal" in="SourceGraphic" in2="effect1_backgroundBlur_1_7" result="shape"/>
</filter>
<filter id="filter3_d_1_7" x="0" y="184.96" width="810.76" height="594.208" filterUnits="userSpaceOnUse" color-interpolation-filters="sRGB">
<feFlood flood-opacity="0" result="BackgroundImageFix"/>
<feColorMatrix in="SourceAlpha" type="matrix" values="0 0 0 0 0 0 0 0 0 0 0 0 0 0 0 0 0 0 127 0" result="hardAlpha"/>
<feOffset dx="20" dy="20"/>
<feGaussianBlur stdDeviation="20"/>
<feColorMatrix type="matrix" values="0 0 0 0 0 0 0 0 0 0 0 0 0 0 0 0 0 0 0.25 0"/>
<feBlend mode="normal" in2="BackgroundImageFix" result="effect1_dropShadow_1_7"/>
<feBlend mode="normal" in="SourceGraphic" in2="effect1_dropShadow_1_7" result="shape"/>
</filter>
<filter id="filter4_b_1_7" x="-20" y="164.96" width="810.76" height="594.208" filterUnits="userSpaceOnUse" color-interpolation-filters="sRGB">
<feFlood flood-opacity="0" result="BackgroundImageFix"/>
<feGaussianBlur in="BackgroundImageFix" stdDeviation="20"/>
<feComposite in2="SourceAlpha" operator="in" result="effect1_backgroundBlur_1_7"/>
<feBlend mode="normal" in="SourceGraphic" in2="effect1_backgroundBlur_1_7" result="shape"/>
</filter>
<filter id="filter5_d_1_7" x="144.561" y="637.348" width="89.2958" height="39.126" filterUnits="userSpaceOnUse" color-interpolation-filters="sRGB">
<feFlood flood-opacity="0" result="BackgroundImageFix"/>
<feColorMatrix in="SourceAlpha" type="matrix" values="0 0 0 0 0 0 0 0 0 0 0 0 0 0 0 0 0 0 127 0" result="hardAlpha"/>
<feOffset dx="-2" dy="2"/>
<feGaussianBlur stdDeviation="2"/>
<feColorMatrix type="matrix" values="0 0 0 0 0 0 0 0 0 0 0 0 0 0 0 0 0 0 0.25 0"/>
<feBlend mode="normal" in2="BackgroundImageFix" result="effect1_dropShadow_1_7"/>
<feBlend mode="normal" in="SourceGraphic" in2="effect1_dropShadow_1_7" result="shape"/>
</filter>
<filter id="filter6_d_1_7" x="66" y="528.96" width="343.163" height="156.833" filterUnits="userSpaceOnUse" color-interpolation-filters="sRGB">
<feFlood flood-opacity="0" result="BackgroundImageFix"/>
<feColorMatrix in="SourceAlpha" type="matrix" values="0 0 0 0 0 0 0 0 0 0 0 0 0 0 0 0 0 0 127 0" result="hardAlpha"/>
<feOffset dx="-3" dy="8"/>
<feGaussianBlur stdDeviation="2"/>
<feColorMatrix type="matrix" values="0 0 0 0 0 0 0 0 0 0 0 0 0 0 0 0 0 0 0.25 0"/>
<feBlend mode="normal" in2="BackgroundImageFix" result="effect1_dropShadow_1_7"/>
<feBlend mode="normal" in="SourceGraphic" in2="effect1_dropShadow_1_7" result="shape"/>
</filter>
<filter id="filter7_d_1_7" x="194.78" y="558.948" width="87.2312" height="67.1875" filterUnits="userSpaceOnUse" color-interpolation-filters="sRGB">
<feFlood flood-opacity="0" result="BackgroundImageFix"/>
<feColorMatrix in="SourceAlpha" type="matrix" values="0 0 0 0 0 0 0 0 0 0 0 0 0 0 0 0 0 0 127 0" result="hardAlpha"/>
<feOffset dx="1" dy="14"/>
<feGaussianBlur stdDeviation="3"/>
<feColorMatrix type="matrix" values="0 0 0 0 0 0 0 0 0 0 0 0 0 0 0 0 0 0 0.6 0"/>
<feBlend mode="normal" in2="BackgroundImageFix" result="effect1_dropShadow_1_7"/>
<feBlend mode="normal" in="SourceGraphic" in2="effect1_dropShadow_1_7" result="shape"/>
</filter>
<filter id="filter8_d_1_7" x="139" y="357.065" width="456.454" height="267.239" filterUnits="userSpaceOnUse" color-interpolation-filters="sRGB">
<feFlood flood-opacity="0" result="BackgroundImageFix"/>
<feColorMatrix in="SourceAlpha" type="matrix" values="0 0 0 0 0 0 0 0 0 0 0 0 0 0 0 0 0 0 127 0" result="hardAlpha"/>
<feOffset dx="3" dy="14"/>
<feGaussianBlur stdDeviation="7"/>
<feColorMatrix type="matrix" values="0 0 0 0 0 0 0 0 0 0 0 0 0 0 0 0 0 0 0.36 0"/>
<feBlend mode="normal" in2="BackgroundImageFix" result="effect1_dropShadow_1_7"/>
<feBlend mode="normal" in="SourceGraphic" in2="effect1_dropShadow_1_7" result="shape"/>
</filter>
<filter id="filter9_d_1_7" x="267.56" y="198.937" width="393.188" height="291.308" filterUnits="userSpaceOnUse" color-interpolation-filters="sRGB">
<feFlood flood-opacity="0" result="BackgroundImageFix"/>
<feColorMatrix in="SourceAlpha" type="matrix" values="0 0 0 0 0 0 0 0 0 0 0 0 0 0 0 0 0 0 127 0" result="hardAlpha"/>
<feOffset dx="10" dy="41"/>
<feGaussianBlur stdDeviation="14.5"/>
<feColorMatrix type="matrix" values="0 0 0 0 0 0 0 0 0 0 0 0 0 0 0 0 0 0 0.25 0"/>
<feBlend mode="normal" in2="BackgroundImageFix" result="effect1_dropShadow_1_7"/>
<feBlend mode="normal" in="SourceGraphic" in2="effect1_dropShadow_1_7" result="shape"/>
</filter>
<filter id="filter10_d_1_7" x="269.561" y="130.945" width="343.029" height="247.401" filterUnits="userSpaceOnUse" color-interpolation-filters="sRGB">
<feFlood flood-opacity="0" result="BackgroundImageFix"/>
<feColorMatrix in="SourceAlpha" type="matrix" values="0 0 0 0 0 0 0 0 0 0 0 0 0 0 0 0 0 0 127 0" result="hardAlpha"/>
<feOffset dx="4" dy="50"/>
<feGaussianBlur stdDeviation="25"/>
<feColorMatrix type="matrix" values="0 0 0 0 0 0 0 0 0 0 0 0 0 0 0 0 0 0 0.25 0"/>
<feBlend mode="normal" in2="BackgroundImageFix" result="effect1_dropShadow_1_7"/>
<feBlend mode="normal" in="SourceGraphic" in2="effect1_dropShadow_1_7" result="shape"/>
</filter>
<filter id="filter11_d_1_7" x="389.019" y="225.178" width="84.8326" height="46.5175" filterUnits="userSpaceOnUse" color-interpolation-filters="sRGB">
<feFlood flood-opacity="0" result="BackgroundImageFix"/>
<feColorMatrix in="SourceAlpha" type="matrix" values="0 0 0 0 0 0 0 0 0 0 0 0 0 0 0 0 0 0 127 0" result="hardAlpha"/>
<feOffset dy="4"/>
<feGaussianBlur stdDeviation="2"/>
<feColorMatrix type="matrix" values="0 0 0 0 0 0 0 0 0 0 0 0 0 0 0 0 0 0 0.25 0"/>
<feBlend mode="normal" in2="BackgroundImageFix" result="effect1_dropShadow_1_7"/>
<feBlend mode="normal" in="SourceGraphic" in2="effect1_dropShadow_1_7" result="shape"/>
</filter>
<filter id="filter12_d_1_7" x="393.058" y="223.768" width="43.9703" height="30.2558" filterUnits="userSpaceOnUse" color-interpolation-filters="sRGB">
<feFlood flood-opacity="0" result="BackgroundImageFix"/>
<feColorMatrix in="SourceAlpha" type="matrix" values="0 0 0 0 0 0 0 0 0 0 0 0 0 0 0 0 0 0 127 0" result="hardAlpha"/>
<feOffset dy="2"/>
<feGaussianBlur stdDeviation="2"/>
<feColorMatrix type="matrix" values="0 0 0 0 0 0 0 0 0 0 0 0 0 0 0 0 0 0 0.25 0"/>
<feBlend mode="normal" in2="BackgroundImageFix" result="effect1_dropShadow_1_7"/>
<feBlend mode="normal" in="SourceGraphic" in2="effect1_dropShadow_1_7" result="shape"/>
</filter>
<filter id="filter13_d_1_7" x="318.561" y="72.9448" width="218.085" height="162.09" filterUnits="userSpaceOnUse" color-interpolation-filters="sRGB">
<feFlood flood-opacity="0" result="BackgroundImageFix"/>
<feColorMatrix in="SourceAlpha" type="matrix" values="0 0 0 0 0 0 0 0 0 0 0 0 0 0 0 0 0 0 127 0" result="hardAlpha"/>
<feOffset dx="3" dy="37"/>
<feGaussianBlur stdDeviation="8.5"/>
<feColorMatrix type="matrix" values="0 0 0 0 0 0 0 0 0 0 0 0 0 0 0 0 0 0 0.25 0"/>
<feBlend mode="normal" in2="BackgroundImageFix" result="effect1_dropShadow_1_7"/>
<feBlend mode="normal" in="SourceGraphic" in2="effect1_dropShadow_1_7" result="shape"/>
</filter>
<filter id="filter14_d_1_7" x="364" y="72.9603" width="91.5735" height="59.6744" filterUnits="userSpaceOnUse" color-interpolation-filters="sRGB">
<feFlood flood-opacity="0" result="BackgroundImageFix"/>
<feColorMatrix in="SourceAlpha" type="matrix" values="0 0 0 0 0 0 0 0 0 0 0 0 0 0 0 0 0 0 127 0" result="hardAlpha"/>
<feOffset dx="1" dy="2"/>
<feGaussianBlur stdDeviation="2"/>
<feColorMatrix type="matrix" values="0 0 0 0 0 0 0 0 0 0 0 0 0 0 0 0 0 0 0.17 0"/>
<feBlend mode="normal" in2="BackgroundImageFix" result="effect1_dropShadow_1_7"/>
<feBlend mode="normal" in="SourceGraphic" in2="effect1_dropShadow_1_7" result="shape"/>
</filter>
<filter id="filter15_d_1_7" x="136.03" y="275.821" width="430.281" height="229.76" filterUnits="userSpaceOnUse" color-interpolation-filters="sRGB">
<feFlood flood-opacity="0" result="BackgroundImageFix"/>
<feColorMatrix in="SourceAlpha" type="matrix" values="0 0 0 0 0 0 0 0 0 0 0 0 0 0 0 0 0 0 127 0" result="hardAlpha"/>
<feOffset dx="5" dy="37"/>
<feGaussianBlur stdDeviation="12.5"/>
<feColorMatrix type="matrix" values="0 0 0 0 0 0 0 0 0 0 0 0 0 0 0 0 0 0 0.25 0"/>
<feBlend mode="normal" in2="BackgroundImageFix" result="effect1_dropShadow_1_7"/>
<feBlend mode="normal" in="SourceGraphic" in2="effect1_dropShadow_1_7" result="shape"/>
</filter>
<filter id="filter16_b_1_7" x="125.03" y="244.821" width="442.281" height="229.76" filterUnits="userSpaceOnUse" color-interpolation-filters="sRGB">
<feFlood flood-opacity="0" result="BackgroundImageFix"/>
<feGaussianBlur in="BackgroundImageFix" stdDeviation="15.5"/>
<feComposite in2="SourceAlpha" operator="in" result="effect1_backgroundBlur_1_7"/>
<feBlend mode="normal" in="SourceGraphic" in2="effect1_backgroundBlur_1_7" result="shape"/>
</filter>
<filter id="filter17_d_1_7" x="407.243" y="368.938" width="83.4799" height="53.1174" filterUnits="userSpaceOnUse" color-interpolation-filters="sRGB">
<feFlood flood-opacity="0" result="BackgroundImageFix"/>
<feColorMatrix in="SourceAlpha" type="matrix" values="0 0 0 0 0 0 0 0 0 0 0 0 0 0 0 0 0 0 127 0" result="hardAlpha"/>
<feOffset dy="2"/>
<feGaussianBlur stdDeviation="1"/>
<feColorMatrix type="matrix" values="0 0 0 0 0 0 0 0 0 0 0 0 0 0 0 0 0 0 0.25 0"/>
<feBlend mode="normal" in2="BackgroundImageFix" result="effect1_dropShadow_1_7"/>
<feBlend mode="normal" in="SourceGraphic" in2="effect1_dropShadow_1_7" result="shape"/>
</filter>
<linearGradient id="paint0_linear_1_7" x1="113.843" y1="0.0033201" x2="375.935" y2="536.174" gradientUnits="userSpaceOnUse">
<stop/>
<stop offset="1" stop-color="#777777"/>
</linearGradient>
<linearGradient id="paint1_linear_1_7" x1="95.6608" y1="13.7917" x2="410.38" y2="504.548" gradientUnits="userSpaceOnUse">
<stop stop-color="#2E2E2E"/>
<stop offset="1" stop-color="#B1B1B1"/>
</linearGradient>
<linearGradient id="paint2_linear_1_7" x1="95.6608" y1="13.7917" x2="410.38" y2="504.548" gradientUnits="userSpaceOnUse">
<stop stop-color="#2E2E2E"/>
<stop offset="1" stop-color="#B1B1B1"/>
</linearGradient>
<linearGradient id="paint3_linear_1_7" x1="149.57" y1="3.41236e-06" x2="90.411" y2="221.586" gradientUnits="userSpaceOnUse">
<stop stop-color="#FFCCCC"/>
<stop offset="1" stop-color="#FFF4F4"/>
</linearGradient>
<linearGradient id="paint4_linear_1_7" x1="-0.771817" y1="127.649" x2="104.365" y2="-74.0822" gradientUnits="userSpaceOnUse">
<stop stop-color="#2E50C7" stop-opacity="0.97"/>
<stop offset="1" stop-color="#2848BB" stop-opacity="0.31"/>
</linearGradient>
<linearGradient id="paint5_linear_1_7" x1="363.711" y1="275.857" x2="543.773" y2="433.477" gradientUnits="userSpaceOnUse">
<stop stop-color="#2E50C7" stop-opacity="0.97"/>
<stop offset="1" stop-color="#6374AE"/>
</linearGradient>
<linearGradient id="paint6_linear_1_7" x1="81.2442" y1="2.45319e-06" x2="27.6358" y2="151.713" gradientUnits="userSpaceOnUse">
<stop stop-color="#FFCCCC"/>
<stop offset="1" stop-color="#FFF4F4"/>
</linearGradient>
<linearGradient id="paint7_linear_1_7" x1="434.78" y1="183.551" x2="406.086" y2="105.248" gradientUnits="userSpaceOnUse">
<stop stop-color="white" stop-opacity="0.13"/>
<stop offset="1" stop-color="#C4C4C4" stop-opacity="0"/>
</linearGradient>
<linearGradient id="paint8_linear_1_7" x1="65.7261" y1="0" x2="65.7261" y2="105.354" gradientUnits="userSpaceOnUse">
<stop stop-color="white" stop-opacity="0.94"/>
<stop offset="1" stop-color="white"/>
</linearGradient>
<linearGradient id="paint9_linear_1_7" x1="420.465" y1="109.282" x2="391.709" y2="31.0028" gradientUnits="userSpaceOnUse">
<stop stop-color="white" stop-opacity="0.24"/>
<stop offset="1" stop-color="#C4C4C4" stop-opacity="0"/>
</linearGradient>
<linearGradient id="paint10_linear_1_7" x1="235.83" y1="576.786" x2="149.014" y2="352.892" gradientUnits="userSpaceOnUse">
<stop stop-color="white" stop-opacity="0.25"/>
<stop offset="1" stop-color="#C4C4C4" stop-opacity="0"/>
</linearGradient>
<clipPath id="clip0_1_7">
<rect width="342.324" height="574.146" rx="45" transform="matrix(0.948692 0.316203 -0.707138 0.707076 426 204.96)" fill="white"/>
</clipPath>
<clipPath id="clip1_1_7">
<rect width="300.916" height="70.2649" rx="16" transform="matrix(0.948692 0.316203 -0.707138 0.707076 122.687 528.96)" fill="white"/>
</clipPath>
<clipPath id="clip2_1_7">
<rect width="299.14" height="204.575" rx="16" transform="matrix(0.948692 0.316203 -0.707138 0.707076 294.662 357.065)" fill="white"/>
</clipPath>
<clipPath id="clip3_1_7">
<rect width="50.4292" height="50.53" fill="white" transform="matrix(0.948692 0.316203 -0.707138 0.707076 402.732 74.9603)"/>
</clipPath>
<clipPath id="clip4_1_7">
<rect width="48" height="48" rx="12" transform="matrix(0.948692 0.316203 -0.707138 0.707076 443.185 368.938)" fill="white"/>
</clipPath>
<clipPath id="clip5_1_7">
<rect width="24" height="24" fill="white" transform="matrix(0.948692 0.316203 -0.707138 0.707076 446.084 381.218)"/>
</clipPath>
</defs>
</svg>
