<svg width="30" height="31" viewBox="0 0 30 31" fill="none" xmlns="http://www.w3.org/2000/svg">
<path d="M23.5716 21.9283C23.5716 21.3479 23.3596 20.8457 22.9355 20.4216C22.5114 19.9975 22.0091 19.7854 21.4288 19.7854C20.8484 19.7854 20.3462 19.9975 19.9221 20.4216C19.498 20.8457 19.2859 21.3479 19.2859 21.9283C19.2859 22.5086 19.498 23.0109 19.9221 23.435C20.3462 23.8591 20.8484 24.0711 21.4288 24.0711C22.0091 24.0711 22.5114 23.8591 22.9355 23.435C23.3596 23.0109 23.5716 22.5086 23.5716 21.9283ZM10.7145 9.07115C10.7145 8.49079 10.5024 7.98856 10.0783 7.56445C9.65423 7.14035 9.15199 6.92829 8.57164 6.92829C7.99128 6.92829 7.48905 7.14035 7.06494 7.56445C6.64083 7.98856 6.42878 8.49079 6.42878 9.07115C6.42878 9.65151 6.64083 10.1537 7.06494 10.5778C7.48905 11.002 7.99128 11.214 8.57164 11.214C9.15199 11.214 9.65423 11.002 10.0783 10.5778C10.5024 10.1537 10.7145 9.65151 10.7145 9.07115ZM27.8574 21.9283C27.8574 23.7028 27.2296 25.2179 25.974 26.4735C24.7184 27.7291 23.2033 28.3569 21.4288 28.3569C19.6542 28.3569 18.1392 27.7291 16.8836 26.4735C15.628 25.2179 15.0002 23.7028 15.0002 21.9283C15.0002 20.1537 15.628 18.6387 16.8836 17.3831C18.1392 16.1275 19.6542 15.4997 21.4288 15.4997C23.2033 15.4997 24.7184 16.1275 25.974 17.3831C27.2296 18.6387 27.8574 20.1537 27.8574 21.9283ZM26.2502 3.71401C26.2502 3.93722 26.1777 4.14927 26.0326 4.35017L8.354 27.9216C8.14195 28.2118 7.85735 28.3569 7.50021 28.3569H4.82164C4.53146 28.3569 4.28034 28.2508 4.06829 28.0388C3.85624 27.8267 3.75021 27.5756 3.75021 27.2854C3.75021 27.0622 3.82275 26.8502 3.96784 26.6493L21.6464 3.07785C21.8585 2.78767 22.1431 2.64258 22.5002 2.64258H25.1788C25.469 2.64258 25.7201 2.7486 25.9321 2.96066C26.1442 3.17271 26.2502 3.42383 26.2502 3.71401ZM15.0002 9.07115C15.0002 10.8457 14.3724 12.3608 13.1168 13.6164C11.8613 14.8719 10.3462 15.4997 8.57164 15.4997C6.79708 15.4997 5.28202 14.8719 4.02644 13.6164C2.77086 12.3608 2.14307 10.8457 2.14307 9.07115C2.14307 7.2966 2.77086 5.78153 4.02644 4.52595C5.28202 3.27037 6.79708 2.64258 8.57164 2.64258C10.3462 2.64258 11.8613 3.27037 13.1168 4.52595C14.3724 5.78153 15.0002 7.2966 15.0002 9.07115Z" fill="#FEC163"/>
</svg>
