<svg width="404" height="266" viewBox="0 0 404 266" fill="none" xmlns="http://www.w3.org/2000/svg">
<path d="M133.253 142.01C130.559 142.01 128.001 141.304 125.779 140.008C123.557 138.712 121.806 136.828 120.796 134.649C119.786 132.47 119.517 130.115 120.055 127.759C120.594 125.462 121.873 123.342 123.759 121.694C125.644 120.045 128.068 118.926 130.694 118.455C133.32 117.984 136.013 118.219 138.505 119.102C140.996 119.986 143.083 121.517 144.565 123.46C146.046 125.404 146.854 127.7 146.854 130.056C146.854 131.646 146.517 133.177 145.844 134.649C145.171 136.121 144.161 137.417 142.949 138.536C141.669 139.655 140.188 140.538 138.572 141.127C136.821 141.716 135.003 142.01 133.253 142.01ZM158.031 117.807V109.621H141.669C138.976 108.797 136.148 108.326 133.253 108.326C119.113 108.326 108.003 117.807 108.003 130.174C108.003 142.54 119.113 152.021 133.253 152.021C147.393 152.021 158.503 142.54 158.503 130.232C158.503 126.051 157.223 121.988 154.665 118.926L158.031 117.807ZM78.7126 142.01C76.0193 142.01 73.4607 141.304 71.2387 140.008C69.0167 138.712 67.266 136.828 66.256 134.649C65.246 132.47 64.9767 130.115 65.5153 127.759C66.054 125.462 67.3333 123.342 69.2187 121.694C71.104 120.045 73.528 118.926 76.154 118.455C78.78 117.984 81.4733 118.219 83.9646 119.102C86.456 119.986 88.5433 121.517 90.0246 123.46C91.506 125.404 92.314 127.7 92.314 130.056C92.314 131.646 91.9773 133.177 91.304 134.649C90.6306 136.121 89.6206 137.417 88.4086 138.536C87.1293 139.655 85.648 140.538 84.032 141.127C82.2813 141.716 80.4633 142.01 78.7126 142.01ZM78.7126 108.326C64.5727 108.326 53.4627 117.807 53.4627 130.174C53.4627 142.54 64.5727 151.962 78.7126 151.962C92.8526 151.962 103.963 142.481 103.963 130.174C103.963 117.866 92.8526 108.385 78.7126 108.326ZM37.2354 150.785H48.884V92.1902H37.2354V150.785ZM163.149 150.785H174.797V109.621H163.149V150.785ZM133.253 165.389C131.502 165.389 129.751 165.095 128.068 164.506C126.452 163.917 124.971 163.034 123.691 161.974C122.412 160.855 121.469 159.559 120.796 158.146C120.123 156.732 119.786 155.142 119.786 153.611H107.935C107.935 165.978 119.045 175.4 133.185 175.4C147.325 175.4 158.435 165.919 158.435 153.611H146.585C146.585 155.142 146.248 156.732 145.575 158.146C144.901 159.559 143.891 160.914 142.679 161.974C141.4 163.092 139.919 163.917 138.303 164.506C136.754 165.095 135.003 165.389 133.253 165.389ZM217.756 125.875C219.305 120.398 224.018 117.395 230.145 117.395C236.272 117.395 240.851 120.339 242.265 125.875H217.756ZM230.482 108.326C216.409 108.326 205.771 117.807 205.771 130.409C205.771 142.835 215.534 152.021 230.684 152.021C239.101 152.021 246.574 149.312 252.028 144.13L244.15 137.299C240.313 140.479 236.205 142.835 230.953 142.835C224.557 142.835 219.709 139.655 218.093 134.237H254.452V131.705C254.452 117.689 244.622 108.326 230.482 108.326ZM333.771 108.326C331.145 108.267 328.519 108.738 326.095 109.621C323.671 110.505 321.449 111.859 319.631 113.567V92.2491H307.982V150.844H319.631V128.466C319.631 122.518 323.94 118.455 331.01 118.455C337.676 118.455 341.312 122.047 341.312 128.466V150.844H352.961V126.522C353.028 115.157 344.948 108.326 333.771 108.326ZM283.406 118.278C288.321 118.278 292.361 120.516 295.391 123.637L303.538 116.57C301.114 113.979 298.084 111.859 294.65 110.446C291.216 109.032 287.378 108.267 283.608 108.326C269.468 108.326 258.358 117.807 258.358 130.174C258.358 142.54 269.468 152.021 283.608 152.021C287.446 152.08 291.216 151.374 294.718 149.901C298.219 148.488 301.249 146.368 303.673 143.718L295.526 136.651C292.496 139.714 288.388 142.01 283.406 142.01C275.932 142.01 270.208 136.887 270.208 130.115C270.141 123.401 275.864 118.219 283.406 118.278ZM197.825 96.9013H186.109V109.562H179.78V118.69H186.042V150.726H197.758V118.69H204.155V109.562H197.758V96.9013H197.825ZM168.872 91.0713C167.862 91.0713 166.852 91.248 165.909 91.6013C164.967 91.9546 164.091 92.4257 163.418 93.0735C162.677 93.7213 162.139 94.4868 161.735 95.3113C161.331 96.1357 161.196 97.0191 161.196 97.9024C161.196 99.728 162.004 101.436 163.485 102.731C164.967 104.027 166.919 104.734 168.939 104.734C171.027 104.734 172.979 104.027 174.393 102.731C175.875 101.436 176.683 99.728 176.683 97.9024C176.683 97.0191 176.481 96.0768 176.144 95.2524C175.74 94.428 175.201 93.6624 174.461 93.0146C173.72 92.3668 172.845 91.8957 171.902 91.5424C170.959 91.1891 169.949 91.0713 168.872 91.0713ZM357.54 105.617H359.29L361.176 108.385H362.388L360.3 105.499C360.57 105.499 360.839 105.44 361.108 105.322C361.378 105.205 361.58 105.087 361.782 104.851C361.984 104.675 362.118 104.439 362.186 104.204C362.253 103.968 362.32 103.732 362.253 103.497C362.253 101.966 361.041 101.377 359.29 101.377H356.53V108.385H357.607V105.617H357.54ZM357.54 102.26H359.29C360.704 102.26 361.176 102.731 361.176 103.497C361.176 104.262 360.637 104.734 359.29 104.734H357.54V102.26ZM359.29 111.682C360.839 111.682 362.32 111.27 363.532 110.505C364.812 109.739 365.754 108.679 366.36 107.442C366.966 106.206 367.101 104.851 366.764 103.556C366.495 102.26 365.754 101.024 364.677 100.081C363.6 99.1391 362.253 98.4913 360.772 98.1968C359.29 97.9613 357.742 98.0791 356.328 98.5502C354.914 99.0802 353.702 99.9046 352.826 101.024C351.951 102.142 351.48 103.438 351.48 104.792C351.48 105.676 351.682 106.618 352.086 107.442C352.49 108.267 353.028 109.032 353.769 109.68C354.51 110.328 355.385 110.799 356.328 111.152C357.27 111.565 358.28 111.682 359.29 111.682ZM359.29 99.0213C361.041 99.0802 362.657 99.728 363.869 100.788C365.081 101.907 365.754 103.379 365.754 104.851C365.754 106.382 365.081 107.855 363.869 108.915C362.657 110.034 361.041 110.681 359.29 110.681C358.415 110.681 357.472 110.564 356.664 110.269C355.856 109.975 355.048 109.562 354.442 109.032C353.769 108.502 353.298 107.855 352.961 107.089C352.624 106.382 352.422 105.558 352.422 104.792C352.422 104.027 352.624 103.202 352.961 102.496C353.298 101.789 353.836 101.141 354.442 100.552C355.116 100.022 355.856 99.5513 356.664 99.3157C357.54 99.1391 358.415 99.0213 359.29 99.0213Z" fill="#3AB2E7"/>
</svg>
