<svg width="620" height="484" viewBox="0 0 811 854" fill="none" xmlns="http://www.w3.org/2000/svg">
<g filter="url(#filter0_b_1_7)">
<rect width="342.324" height="574.146" rx="45" transform="matrix(0.948692 0.316203 -0.707138 0.707076 426 338.96)" fill="url(#paint0_linear_1_7)" fill-opacity="0.5"/>
<rect x="0.120777" y="0.511639" width="341.324" height="573.146" rx="44.5" transform="matrix(0.948692 0.316203 -0.707138 0.707076 426.368 339.072)" stroke="white"/>
</g>
<g filter="url(#filter1_d_1_7)">
<g filter="url(#filter2_b_1_7)">
<rect width="342.324" height="574.146" rx="45" transform="matrix(0.948692 0.316203 -0.707138 0.707076 426 271.96)" fill="url(#paint1_linear_1_7)" fill-opacity="0.4"/>
</g>
</g>
<g filter="url(#filter3_d_1_7)">
<g filter="url(#filter4_b_1_7)">
<g clip-path="url(#clip0_1_7)">
<rect width="342.324" height="574.146" rx="45" transform="matrix(0.948692 0.316203 -0.707138 0.707076 426 204.96)" fill="url(#paint2_linear_1_7)" fill-opacity="0.4"/>
<g filter="url(#filter5_d_1_7)">
<line x1="152.336" y1="641.474" x2="230.08" y2="668.348" stroke="white" stroke-opacity="0.8" stroke-width="4" stroke-linecap="round"/>
</g>
</g>
</g>
<g filter="url(#filter6_d_1_7)">
<g clip-path="url(#clip1_1_7)">
<rect width="50" height="50" rx="8" transform="matrix(0.948692 0.316203 -0.707138 0.707076 126.357 539.96)" fill="white" fill-opacity="0.6"/>
<rect width="50" height="50" rx="8" transform="matrix(0.948692 0.316203 -0.707138 0.707076 183.278 558.932)" fill="white" fill-opacity="0.6"/>
<rect width="50" height="50" rx="8" transform="matrix(0.948692 0.316203 -0.707138 0.707076 286.357 590.96)" fill="white" fill-opacity="0.6"/>
<rect width="50" height="50" rx="8" transform="matrix(0.948692 0.316203 -0.707138 0.707076 343.278 609.932)" fill="white" fill-opacity="0.6"/>
</g>
<rect x="0.241554" y="1.02328" width="298.916" height="68.2649" rx="15" transform="matrix(0.948692 0.316203 -0.707138 0.707076 123.423 529.184)" stroke="white" stroke-opacity="0.6" stroke-width="2"/>
</g>
</g>
<g filter="url(#filter7_d_1_7)">
<rect width="50" height="50" rx="8" transform="matrix(0.948692 0.316203 -0.707137 0.707076 231.357 556.96)" fill="#EDEDED"/>
</g>
<g filter="url(#filter8_d_1_7)">
<g clip-path="url(#clip2_1_7)">
<rect width="299.14" height="204.575" rx="16" transform="matrix(0.948692 0.316203 -0.707138 0.707076 294.662 357.065)" fill="url(#paint3_linear_1_7)"/>
<path d="M298.982 397.949C298.759 398.016 298.491 398.071 298.178 398.113C297.865 398.154 297.527 398.173 297.163 398.167C296.792 398.164 296.406 398.132 296.006 398.071C295.605 398.011 295.206 397.914 294.808 397.782C294.462 397.667 294.166 397.527 293.921 397.364C293.676 397.205 293.482 397.026 293.34 396.829C293.205 396.629 293.118 396.411 293.078 396.174C293.042 395.939 293.061 395.69 293.135 395.426C293.209 395.133 293.352 394.822 293.566 394.493C293.783 394.166 294.068 393.827 294.419 393.476L295.376 392.519C295.711 392.184 296.063 391.887 296.432 391.627C296.804 391.365 297.184 391.141 297.57 390.956C297.922 390.794 298.275 390.66 298.629 390.555C298.987 390.451 299.339 390.375 299.686 390.327C300.089 390.277 300.481 390.268 300.863 390.301C301.245 390.333 301.609 390.408 301.955 390.523C302.487 390.7 302.9 390.904 303.193 391.135C303.491 391.368 303.683 391.623 303.768 391.9C303.85 392.181 303.832 392.482 303.712 392.803C303.597 393.126 303.394 393.464 303.104 393.819L301.327 393.226C301.467 393.045 301.571 392.878 301.638 392.724C301.71 392.572 301.737 392.433 301.719 392.307C301.698 392.166 301.619 392.041 301.481 391.931C301.351 391.819 301.158 391.72 300.903 391.635C300.765 391.589 300.615 391.56 300.453 391.549C300.291 391.538 300.123 391.545 299.95 391.569C299.719 391.603 299.475 391.668 299.219 391.763C298.967 391.86 298.71 391.987 298.448 392.145C298.246 392.266 298.041 392.408 297.832 392.571C297.628 392.735 297.424 392.918 297.221 393.121L296.254 394.088C296 394.342 295.789 394.582 295.623 394.805C295.461 395.031 295.341 395.238 295.262 395.426C295.22 395.537 295.191 395.643 295.176 395.745C295.168 395.846 295.174 395.94 295.195 396.029C295.23 396.178 295.311 396.31 295.438 396.426C295.572 396.539 295.754 396.637 295.985 396.718C296.127 396.765 296.276 396.804 296.43 396.834C296.585 396.864 296.737 396.885 296.887 396.896C297.037 396.907 297.175 396.91 297.302 396.905C297.435 396.898 297.547 396.882 297.637 396.856L298.919 395.582L297.356 395.061L298.371 394.046L301.75 395.172L298.982 397.949ZM303.018 400.518C302.478 400.338 302.053 400.109 301.744 399.83C301.435 399.55 301.238 399.244 301.151 398.91C301.061 398.579 301.082 398.232 301.216 397.868C301.356 397.503 301.602 397.144 301.954 396.793L302.147 396.6C302.547 396.2 302.995 395.864 303.492 395.592C303.993 395.316 304.514 395.109 305.055 394.972C305.596 394.834 306.14 394.768 306.687 394.775C307.234 394.781 307.752 394.865 308.241 395.028C308.747 395.197 309.133 395.409 309.401 395.666C309.677 395.921 309.84 396.208 309.891 396.526C309.938 396.842 309.873 397.183 309.697 397.55C309.523 397.913 309.245 398.287 308.862 398.67L308.291 399.24L303.531 397.654L303.517 397.668C303.368 397.898 303.276 398.093 303.242 398.254C303.212 398.411 303.225 398.568 303.282 398.724C303.34 398.886 303.446 399.03 303.6 399.159C303.753 399.288 303.956 399.394 304.206 399.477C304.561 399.595 304.955 399.66 305.387 399.671C305.82 399.682 306.24 399.622 306.648 399.492L306.824 400.517C306.353 400.683 305.771 400.781 305.077 400.811C304.383 400.842 303.697 400.745 303.018 400.518ZM307.14 396.111C306.937 396.044 306.724 396.009 306.5 396.008C306.28 396.003 306.057 396.03 305.832 396.088C305.603 396.145 305.375 396.228 305.15 396.337C304.925 396.447 304.706 396.58 304.492 396.737L307.449 397.722L307.555 397.616C307.697 397.474 307.796 397.329 307.853 397.18C307.909 397.031 307.924 396.89 307.896 396.756C307.865 396.626 307.787 396.505 307.661 396.395C307.543 396.282 307.369 396.188 307.14 396.111ZM317.506 396.537L316.225 397.818L318.845 398.691L317.854 399.682L315.234 398.809L312.986 401.057C312.796 401.247 312.664 401.416 312.592 401.563C312.527 401.709 312.511 401.837 312.545 401.947C312.576 402.061 312.651 402.159 312.77 402.241C312.893 402.325 313.05 402.399 313.24 402.462C313.379 402.509 313.524 402.551 313.676 402.588C313.833 402.628 313.986 402.662 314.136 402.69C314.279 402.721 314.415 402.747 314.543 402.768C314.676 402.791 314.792 402.808 314.89 402.819L314.142 403.801C313.961 403.814 313.766 403.813 313.556 403.799C313.348 403.781 313.137 403.753 312.921 403.716C312.705 403.678 312.486 403.631 312.266 403.575C312.047 403.523 311.838 403.464 311.639 403.398C311.254 403.27 310.941 403.116 310.699 402.937C310.465 402.756 310.319 402.548 310.259 402.313C310.192 402.08 310.221 401.821 310.345 401.536C310.472 401.248 310.708 400.931 311.053 400.586L313.431 398.208L311.829 397.674L312.82 396.683L314.422 397.217L315.703 395.936L317.506 396.537ZM332.336 407.223C331.952 407.567 331.529 407.851 331.068 408.076C330.612 408.302 330.136 408.466 329.643 408.567C329.149 408.669 328.644 408.707 328.128 408.681C327.615 408.652 327.112 408.556 326.619 408.391C326.23 408.262 325.906 408.104 325.648 407.919C325.396 407.732 325.21 407.524 325.088 407.294C324.978 407.081 324.921 406.85 324.918 406.6C324.919 406.351 324.967 406.092 325.063 405.823C325.163 405.556 325.314 405.275 325.516 404.982C325.722 404.689 325.976 404.392 326.279 404.089L327.226 403.141C327.51 402.858 327.809 402.599 328.125 402.364C328.443 402.127 328.772 401.919 329.112 401.74C329.518 401.518 329.938 401.341 330.372 401.206C330.807 401.072 331.239 400.979 331.669 400.929C332.047 400.892 332.419 400.891 332.786 400.928C333.161 400.963 333.524 401.038 333.874 401.155C334.393 401.328 334.798 401.536 335.091 401.78C335.388 402.025 335.577 402.296 335.659 402.594C335.742 402.893 335.718 403.216 335.589 403.564C335.46 403.912 335.234 404.276 334.91 404.658L333.094 404.053C333.286 403.838 333.427 403.64 333.515 403.459C333.608 403.279 333.645 403.115 333.626 402.967C333.6 402.821 333.515 402.69 333.372 402.573C333.237 402.455 333.035 402.351 332.767 402.262C332.624 402.214 332.479 402.181 332.331 402.162C332.187 402.144 332.041 402.14 331.892 402.151C331.637 402.169 331.375 402.23 331.105 402.333C330.842 402.434 330.578 402.568 330.315 402.734C330.11 402.863 329.905 403.014 329.699 403.185C329.495 403.354 329.291 403.541 329.084 403.748L328.127 404.705C327.847 404.985 327.615 405.243 327.432 405.478C327.256 405.712 327.129 405.925 327.051 406.118C326.999 406.251 326.97 406.375 326.965 406.489C326.965 406.605 326.989 406.71 327.039 406.804C327.092 406.907 327.173 406.999 327.284 407.079C327.402 407.157 327.549 407.225 327.726 407.284C327.964 407.364 328.201 407.412 328.436 407.431C328.672 407.449 328.905 407.432 329.135 407.38C329.366 407.328 329.596 407.239 329.825 407.114C330.055 406.988 330.284 406.822 330.514 406.615L332.336 407.223ZM341.983 406.275C342.256 406.365 342.492 406.464 342.692 406.569C342.9 406.673 343.059 406.764 343.169 406.844L341.564 408.094C341.369 407.973 341.155 407.861 340.923 407.758C340.7 407.653 340.475 407.564 340.25 407.489C340.017 407.411 339.789 407.356 339.566 407.325C339.352 407.292 339.14 407.282 338.932 407.294C338.684 407.306 338.442 407.346 338.207 407.413C337.972 407.481 337.739 407.576 337.509 407.696L334.367 410.838L332.564 410.237L337.794 405.007L339.474 405.567L338.806 406.331L338.703 406.451C339.285 406.25 339.858 406.131 340.424 406.096C340.992 406.058 341.512 406.118 341.983 406.275ZM342.902 413.812C342.362 413.632 341.937 413.402 341.628 413.123C341.319 412.844 341.122 412.537 341.035 412.203C340.945 411.873 340.966 411.525 341.099 411.162C341.24 410.796 341.486 410.438 341.838 410.086L342.031 409.893C342.43 409.494 342.879 409.158 343.376 408.885C343.877 408.609 344.398 408.403 344.939 408.265C345.48 408.128 346.024 408.062 346.571 408.068C347.118 408.074 347.636 408.159 348.125 408.322C348.631 408.49 349.017 408.703 349.285 408.96C349.56 409.215 349.724 409.501 349.775 409.819C349.822 410.135 349.757 410.477 349.58 410.843C349.407 411.207 349.129 411.58 348.746 411.964L348.175 412.534L343.415 410.947L343.4 410.962C343.252 411.191 343.16 411.387 343.126 411.547C343.096 411.705 343.109 411.861 343.166 412.018C343.224 412.179 343.33 412.324 343.483 412.452C343.637 412.581 343.84 412.687 344.09 412.771C344.445 412.889 344.839 412.954 345.271 412.965C345.704 412.976 346.124 412.916 346.532 412.785L346.708 413.811C346.237 413.976 345.655 414.074 344.961 414.105C344.267 414.136 343.581 414.038 342.902 413.812ZM347.024 409.405C346.821 409.337 346.608 409.303 346.384 409.301C346.164 409.297 345.941 409.323 345.716 409.381C345.486 409.438 345.259 409.521 345.034 409.631C344.809 409.741 344.59 409.874 344.376 410.03L347.333 411.016L347.439 410.909C347.581 410.768 347.68 410.622 347.737 410.474C347.793 410.325 347.808 410.184 347.78 410.05C347.749 409.919 347.671 409.799 347.545 409.688C347.427 409.576 347.253 409.481 347.024 409.405ZM350.037 412.523C350.433 412.126 350.856 411.784 351.306 411.496C351.76 411.209 352.224 410.987 352.697 410.832C353.17 410.676 353.639 410.589 354.105 410.573C354.576 410.558 355.029 410.623 355.466 410.769C355.834 410.891 356.106 411.048 356.282 411.24C356.467 411.431 356.577 411.652 356.613 411.905L359.276 409.241L361.085 409.845L353.66 417.269L352.033 416.726L352.488 416.15C352.065 416.279 351.647 416.351 351.236 416.364C350.825 416.377 350.423 416.319 350.029 416.187C349.601 416.045 349.283 415.85 349.073 415.604C348.871 415.357 348.771 415.076 348.773 414.763C348.771 414.449 348.868 414.11 349.065 413.746C349.265 413.378 349.555 413.005 349.935 412.624L350.037 412.523ZM351.738 413.225C351.519 413.444 351.338 413.657 351.195 413.863C351.06 414.067 350.98 414.257 350.954 414.433C350.924 414.612 350.958 414.772 351.055 414.912C351.151 415.051 351.327 415.164 351.582 415.249C351.894 415.352 352.201 415.388 352.504 415.356C352.811 415.325 353.113 415.243 353.408 415.109L355.525 412.992C355.581 412.775 355.556 412.584 355.449 412.419C355.346 412.252 355.141 412.117 354.834 412.014C354.579 411.929 354.319 411.898 354.053 411.922C353.796 411.943 353.539 412.006 353.285 412.11C353.028 412.218 352.777 412.36 352.531 412.536C352.289 412.709 352.059 412.905 351.84 413.124L351.738 413.225ZM361.258 412.828L365.078 414.101L360.94 418.239L362.84 418.872L361.748 419.964L356.028 418.058L357.12 416.965L359.118 417.631L362.158 414.591L360.161 413.925L361.258 412.828ZM364.465 412.112C364.568 412.008 364.687 411.921 364.821 411.85C364.963 411.777 365.112 411.724 365.267 411.689C365.419 411.658 365.576 411.646 365.737 411.653C365.902 411.66 366.062 411.69 366.218 411.742C366.538 411.849 366.723 412.001 366.773 412.198C366.832 412.393 366.756 412.596 366.546 412.805C366.337 413.015 366.069 413.156 365.744 413.227C365.426 413.298 365.107 413.279 364.787 413.173C364.631 413.121 364.506 413.056 364.412 412.977C364.322 412.9 364.264 412.814 364.238 412.719C364.208 412.627 364.211 412.53 364.246 412.425C364.289 412.319 364.362 412.215 364.465 412.112ZM373.343 415.148L372.062 416.429L374.682 417.302L373.691 418.293L371.071 417.42L368.824 419.667C368.633 419.858 368.502 420.026 368.429 420.174C368.364 420.32 368.349 420.448 368.382 420.558C368.413 420.671 368.488 420.769 368.607 420.852C368.731 420.936 368.887 421.01 369.078 421.073C369.216 421.119 369.361 421.161 369.514 421.199C369.67 421.239 369.824 421.273 369.974 421.301C370.117 421.332 370.252 421.357 370.381 421.379C370.513 421.402 370.629 421.419 370.727 421.43L369.979 422.411C369.799 422.424 369.604 422.424 369.393 422.409C369.186 422.392 368.974 422.364 368.758 422.327C368.542 422.289 368.324 422.242 368.104 422.186C367.884 422.134 367.675 422.075 367.476 422.009C367.091 421.881 366.778 421.727 366.537 421.548C366.303 421.367 366.156 421.159 366.097 420.924C366.03 420.691 366.058 420.432 366.182 420.147C366.309 419.859 366.545 419.542 366.89 419.197L369.268 416.819L367.667 416.285L368.658 415.294L370.259 415.828L371.54 414.547L373.343 415.148Z" fill="black"/>
<rect x="0.120777" y="0.511639" width="245.494" height="127.511" rx="3.5" transform="matrix(0.948692 0.316203 -0.707138 0.707076 271.977 412.945)" fill="url(#paint4_linear_1_7)" stroke="white"/>
</g>
</g>
<g filter="url(#filter9_d_1_7)">
<mask id="path-16-inside-1_1_7" fill="white">
<path fill-rule="evenodd" clip-rule="evenodd" d="M563.701 258.941C569.949 252.692 568.219 245.362 559.836 242.568L432.179 200.02C423.796 197.225 411.934 200.025 405.686 206.274L290.314 321.635C284.066 327.883 285.796 335.213 294.179 338.008L537.662 419.161C546.045 421.956 557.907 419.156 564.155 412.907L617.994 359.073C624.243 352.825 622.513 345.495 614.13 342.701L528.661 314.214C520.278 311.42 518.548 304.089 524.796 297.841L563.701 258.941Z"/>
</mask>
<path fill-rule="evenodd" clip-rule="evenodd" d="M563.701 258.941C569.949 252.692 568.219 245.362 559.836 242.568L432.179 200.02C423.796 197.225 411.934 200.025 405.686 206.274L290.314 321.635C284.066 327.883 285.796 335.213 294.179 338.008L537.662 419.161C546.045 421.956 557.907 419.156 564.155 412.907L617.994 359.073C624.243 352.825 622.513 345.495 614.13 342.701L528.661 314.214C520.278 311.42 518.548 304.089 524.796 297.841L563.701 258.941Z" fill="url(#paint5_linear_1_7)"/>
<path d="M524.796 297.841L523.848 297.525L524.796 297.841ZM431.472 200.727L559.129 243.275L560.543 241.861L432.886 199.312L431.472 200.727ZM291.263 321.951L406.634 206.59L404.737 205.957L289.366 321.319L291.263 321.951ZM538.369 418.454L294.886 337.3L293.472 338.715L536.955 419.869L538.369 418.454ZM617.046 358.757L563.207 412.591L565.104 413.224L618.943 359.389L617.046 358.757ZM614.837 341.994L529.368 313.507L527.954 314.921L613.422 343.408L614.837 341.994ZM525.745 298.157L564.649 259.257L562.752 258.624L523.848 297.525L525.745 298.157ZM529.368 313.507C521.509 310.887 519.887 304.015 525.745 298.157L523.848 297.525C517.209 304.164 519.047 311.952 527.954 314.921L529.368 313.507ZM618.943 359.389C625.582 352.751 623.744 344.962 614.837 341.994L613.422 343.408C621.282 346.027 622.904 352.899 617.046 358.757L618.943 359.389ZM536.955 419.869C545.862 422.837 558.465 419.862 565.104 413.224L563.207 412.591C557.349 418.449 546.228 421.074 538.369 418.454L536.955 419.869ZM289.366 321.319C282.726 327.957 284.565 335.746 293.472 338.715L294.886 337.3C287.027 334.681 285.405 327.809 291.263 321.951L289.366 321.319ZM559.129 243.275C566.988 245.895 568.61 252.767 562.752 258.624L564.649 259.257C571.288 252.618 569.45 244.83 560.543 241.861L559.129 243.275ZM432.886 199.312C423.979 196.344 411.376 199.319 404.737 205.957L406.634 206.59C412.493 200.732 423.613 198.107 431.472 200.727L432.886 199.312Z" fill="white" mask="url(#path-16-inside-1_1_7)"/>
</g>
<g filter="url(#filter10_d_1_7)">
<rect width="162.488" height="147.072" rx="16" transform="matrix(0.948692 0.316203 -0.707138 0.707076 412 126.96)" fill="url(#paint6_linear_1_7)"/>
<g filter="url(#filter11_d_1_7)">
<rect x="0.241554" y="1.02328" width="70.5944" height="31.9396" rx="15.9698" transform="matrix(0.948692 0.316203 -0.707138 0.707076 409.736 221.184)" fill="#EFBDBD" stroke="white" stroke-width="2"/>
</g>
<g filter="url(#filter12_d_1_7)">
<ellipse cx="15.7954" cy="14.0599" rx="15.7954" ry="14.0599" transform="matrix(0.948692 0.316203 -0.707138 0.707076 410 221.96)" fill="white"/>
</g>
</g>
<path d="M314.335 228.494L285 147.897L515.755 64.1643L557.5 178.46L314.335 228.494Z" fill="url(#paint7_linear_1_7)"/>
<g filter="url(#filter13_d_1_7)">
<rect width="131.452" height="105.354" rx="16" transform="matrix(0.948692 0.316203 -0.707138 0.707076 399.5 68.9603)" fill="url(#paint8_linear_1_7)"/>
<g filter="url(#filter14_d_1_7)">
<g clip-path="url(#clip3_1_7)">
<rect width="50" height="50" rx="8" transform="matrix(0.948692 0.316203 -0.707138 0.707076 402.732 74.9603)" fill="white"/>
<path d="M401.789 109.078L399.373 98.8448L415.931 94.9361" stroke="black" stroke-width="2" stroke-linecap="round" stroke-linejoin="round"/>
</g>
</g>
</g>
<g filter="url(#filter15_d_1_7)">
<g filter="url(#filter16_b_1_7)">
<rect width="323.669" height="74.9501" transform="matrix(0.948692 0.316203 -0.707138 0.707076 219 281.96)" fill="#646464" fill-opacity="0.62"/>
<rect width="323.669" height="74.9501" transform="matrix(0.948692 0.316203 -0.707138 0.707076 219 281.96)" stroke="white" stroke-width="2"/>
<rect x="0.120777" y="0.51164" width="11" height="11" transform="matrix(0.948692 0.316203 -0.707138 0.707076 217.919 275.932)" fill="black" stroke="white"/>
<rect x="0.120777" y="0.51164" width="11" height="11" transform="matrix(0.948692 0.316203 -0.707138 0.707076 525.295 378.382)" fill="black" stroke="white"/>
<rect x="0.120777" y="0.51164" width="11" height="11" transform="matrix(0.948692 0.316203 -0.707138 0.707076 472.259 431.413)" fill="black" stroke="white"/>
<rect x="0.120777" y="0.51164" width="11" height="11" transform="matrix(0.948692 0.316203 -0.707138 0.707076 164.883 328.963)" fill="black" stroke="white"/>
<path d="M223.216 317.172L217.583 315.295L214.02 318.858L220.589 321.047L219.504 322.131L211.222 319.371L221.276 309.317L229.476 312.05L228.385 313.141L221.899 310.979L218.668 314.211L224.3 316.088L223.216 317.172ZM235.882 315.216L234.073 317.026L237.89 318.298L236.902 319.285L233.085 318.013L229.025 322.073C228.735 322.363 228.545 322.619 228.455 322.841C228.365 323.062 228.351 323.257 228.414 323.425C228.472 323.598 228.589 323.745 228.765 323.865C228.947 323.987 229.165 324.09 229.419 324.175C229.604 324.236 229.802 324.293 230.014 324.345C230.23 324.393 230.445 324.437 230.66 324.478C230.868 324.516 231.064 324.551 231.247 324.582C231.442 324.61 231.601 324.632 231.724 324.648L231.06 325.633C230.854 325.65 230.623 325.65 230.369 325.633C230.119 325.611 229.858 325.576 229.584 325.528C229.307 325.485 229.023 325.427 228.733 325.355C228.449 325.284 228.174 325.205 227.908 325.117C227.464 324.968 227.093 324.783 226.796 324.562C226.509 324.337 226.328 324.074 226.251 323.772C226.169 323.475 226.206 323.138 226.362 322.76C226.528 322.379 226.841 321.959 227.302 321.499L231.362 317.439L228.731 316.562L229.719 315.574L232.35 316.451L234.159 314.642L235.882 315.216ZM242.013 321.154C242.3 321.048 242.59 320.96 242.881 320.891C243.177 320.818 243.465 320.764 243.747 320.729C244.205 320.667 244.651 320.653 245.086 320.687C245.527 320.724 245.951 320.807 246.357 320.936C246.882 321.111 247.3 321.327 247.611 321.584C247.933 321.838 248.125 322.136 248.189 322.476C248.252 322.816 248.18 323.197 247.972 323.619C247.775 324.038 247.426 324.499 246.924 325.001L242.221 329.703L240.507 329.132L245.224 324.416C245.518 324.121 245.73 323.848 245.858 323.596C245.991 323.34 246.042 323.108 246.01 322.901C245.98 322.676 245.858 322.476 245.646 322.301C245.439 322.121 245.145 321.971 244.763 321.85C244.454 321.747 244.129 321.681 243.786 321.653C243.444 321.625 243.096 321.632 242.741 321.673C242.464 321.704 242.183 321.754 241.898 321.825C241.624 321.893 241.351 321.98 241.08 322.086L235.653 327.514L233.939 326.942L244.546 316.336L246.26 316.908L242.013 321.154ZM243.122 334.027C242.962 333.973 242.787 333.897 242.599 333.797C242.41 333.697 242.269 333.62 242.177 333.564L243.497 332.614C243.642 332.675 243.787 332.732 243.931 332.786C244.076 332.847 244.192 332.892 244.278 332.92C244.513 332.999 244.774 333.021 245.062 332.989C245.357 332.958 245.648 332.901 245.936 332.819C246.217 332.735 246.482 332.639 246.73 332.532C246.984 332.426 247.188 332.337 247.341 332.266L249.021 331.5L251.824 322.942L253.742 323.581L251.673 329.318L251.213 330.371L252.563 329.651L259.995 325.666L261.913 326.305L248.202 333.234C247.891 333.388 247.535 333.543 247.133 333.697C246.738 333.854 246.318 333.981 245.874 334.079C245.431 334.176 244.974 334.23 244.504 334.239C244.034 334.248 243.573 334.177 243.122 334.027ZM265.573 331.217L271.02 329.34L273.03 330.01L265.602 332.46L265.66 337.515L263.678 336.855L263.753 333.087L258.138 335.008L256.136 334.341L263.749 331.842L263.71 326.904L265.693 327.565L265.573 331.217ZM271.937 338.503C272.208 338.231 272.552 338.036 272.968 337.916C273.383 337.797 273.817 337.813 274.268 337.963C274.712 338.111 274.952 338.32 274.987 338.589C275.033 338.856 274.918 339.128 274.642 339.404C274.37 339.676 274.025 339.865 273.606 339.971C273.187 340.076 272.759 340.056 272.32 339.91C271.875 339.762 271.631 339.558 271.587 339.297C271.553 339.034 271.67 338.77 271.937 338.503ZM287.261 334.753L292.384 336.461L286.017 342.827L289.288 343.917L288.183 345.022L279.789 342.225L280.894 341.12L284.303 342.256L289.558 337.001L286.149 335.865L287.261 334.753ZM292.409 333.855C292.52 333.744 292.645 333.648 292.785 333.565C292.931 333.485 293.088 333.427 293.256 333.391C293.396 333.358 293.544 333.346 293.699 333.355C293.866 333.361 294.03 333.391 294.19 333.445C294.351 333.498 294.474 333.564 294.561 333.642C294.652 333.715 294.708 333.795 294.729 333.882C294.763 333.979 294.757 334.085 294.709 334.198C294.662 334.311 294.581 334.425 294.466 334.54C294.259 334.747 294 334.891 293.688 334.971C293.377 335.052 293.052 335.036 292.712 334.922C292.366 334.807 292.176 334.652 292.141 334.456C292.113 334.262 292.202 334.062 292.409 333.855ZM290.916 345.933L298.388 338.462L299.925 338.974L298.941 340.119C299.246 340.012 299.549 339.923 299.851 339.852C300.164 339.778 300.467 339.726 300.761 339.695C301.205 339.647 301.639 339.641 302.063 339.678C302.498 339.712 302.912 339.792 303.306 339.917C303.831 340.092 304.252 340.306 304.567 340.558C304.889 340.813 305.084 341.108 305.152 341.444C305.22 341.779 305.152 342.156 304.949 342.573C304.757 342.988 304.412 343.444 303.915 343.941L299.17 348.684L297.456 348.113L302.173 343.397C302.504 343.066 302.736 342.768 302.867 342.505C302.999 342.242 303.04 342.007 302.991 341.801C302.936 341.592 302.799 341.408 302.579 341.249C302.366 341.092 302.077 340.953 301.712 340.831C301.397 340.726 301.07 340.663 300.729 340.642C300.393 340.616 300.053 340.622 299.709 340.661C299.422 340.7 299.132 340.76 298.838 340.84C298.55 340.922 298.267 341.024 297.988 341.146L292.63 346.504L290.916 345.933Z" fill="white"/>
<g filter="url(#filter17_d_1_7)">
<g clip-path="url(#clip4_1_7)">
<rect width="48" height="48" rx="12" transform="matrix(0.948692 0.316203 -0.707138 0.707076 443.185 368.938)" fill="white"/>
<g clip-path="url(#clip5_1_7)">
<path d="M443.084 398.13C447.276 399.527 453.206 398.127 456.331 395.003C459.455 391.879 458.59 388.214 454.398 386.817C450.207 385.42 444.276 386.82 441.151 389.944C438.027 393.068 438.892 396.733 443.084 398.13Z" stroke="black" stroke-width="2" stroke-linecap="round" stroke-linejoin="round"/>
<path d="M451.157 402.706L450.106 398.255" stroke="black" stroke-width="2" stroke-linecap="round" stroke-linejoin="round"/>
</g>
</g>
</g>
</g>
</g>
<path d="M332.142 142.534L302.808 61.9369L472.223 0.529664L513 109.96L332.142 142.534Z" fill="url(#paint9_linear_1_7)"/>
<path d="M200.313 592.896L115.824 360.765L185.835 336.017L274 573.96L200.313 592.896Z" fill="url(#paint10_linear_1_7)"/>
<defs>
<filter id="filter0_b_1_7" x="-20" y="298.96" width="810.76" height="594.208" filterUnits="userSpaceOnUse" color-interpolation-filters="sRGB">
<feFlood flood-opacity="0" result="BackgroundImageFix"/>
<feGaussianBlur in="BackgroundImageFix" stdDeviation="20"/>
<feComposite in2="SourceAlpha" operator="in" result="effect1_backgroundBlur_1_7"/>
<feBlend mode="normal" in="SourceGraphic" in2="effect1_backgroundBlur_1_7" result="shape"/>
</filter>
<filter id="filter1_d_1_7" x="0" y="251.96" width="810.76" height="594.208" filterUnits="userSpaceOnUse" color-interpolation-filters="sRGB">
<feFlood flood-opacity="0" result="BackgroundImageFix"/>
<feColorMatrix in="SourceAlpha" type="matrix" values="0 0 0 0 0 0 0 0 0 0 0 0 0 0 0 0 0 0 127 0" result="hardAlpha"/>
<feOffset dx="20" dy="20"/>
<feGaussianBlur stdDeviation="20"/>
<feColorMatrix type="matrix" values="0 0 0 0 0 0 0 0 0 0 0 0 0 0 0 0 0 0 0.25 0"/>
<feBlend mode="normal" in2="BackgroundImageFix" result="effect1_dropShadow_1_7"/>
<feBlend mode="normal" in="SourceGraphic" in2="effect1_dropShadow_1_7" result="shape"/>
</filter>
<filter id="filter2_b_1_7" x="-20" y="231.96" width="810.76" height="594.208" filterUnits="userSpaceOnUse" color-interpolation-filters="sRGB">
<feFlood flood-opacity="0" result="BackgroundImageFix"/>
<feGaussianBlur in="BackgroundImageFix" stdDeviation="20"/>
<feComposite in2="SourceAlpha" operator="in" result="effect1_backgroundBlur_1_7"/>
<feBlend mode="normal" in="SourceGraphic" in2="effect1_backgroundBlur_1_7" result="shape"/>
</filter>
<filter id="filter3_d_1_7" x="0" y="184.96" width="810.76" height="594.208" filterUnits="userSpaceOnUse" color-interpolation-filters="sRGB">
<feFlood flood-opacity="0" result="BackgroundImageFix"/>
<feColorMatrix in="SourceAlpha" type="matrix" values="0 0 0 0 0 0 0 0 0 0 0 0 0 0 0 0 0 0 127 0" result="hardAlpha"/>
<feOffset dx="20" dy="20"/>
<feGaussianBlur stdDeviation="20"/>
<feColorMatrix type="matrix" values="0 0 0 0 0 0 0 0 0 0 0 0 0 0 0 0 0 0 0.25 0"/>
<feBlend mode="normal" in2="BackgroundImageFix" result="effect1_dropShadow_1_7"/>
<feBlend mode="normal" in="SourceGraphic" in2="effect1_dropShadow_1_7" result="shape"/>
</filter>
<filter id="filter4_b_1_7" x="-20" y="164.96" width="810.76" height="594.208" filterUnits="userSpaceOnUse" color-interpolation-filters="sRGB">
<feFlood flood-opacity="0" result="BackgroundImageFix"/>
<feGaussianBlur in="BackgroundImageFix" stdDeviation="20"/>
<feComposite in2="SourceAlpha" operator="in" result="effect1_backgroundBlur_1_7"/>
<feBlend mode="normal" in="SourceGraphic" in2="effect1_backgroundBlur_1_7" result="shape"/>
</filter>
<filter id="filter5_d_1_7" x="144.561" y="637.348" width="89.2958" height="39.126" filterUnits="userSpaceOnUse" color-interpolation-filters="sRGB">
<feFlood flood-opacity="0" result="BackgroundImageFix"/>
<feColorMatrix in="SourceAlpha" type="matrix" values="0 0 0 0 0 0 0 0 0 0 0 0 0 0 0 0 0 0 127 0" result="hardAlpha"/>
<feOffset dx="-2" dy="2"/>
<feGaussianBlur stdDeviation="2"/>
<feColorMatrix type="matrix" values="0 0 0 0 0 0 0 0 0 0 0 0 0 0 0 0 0 0 0.25 0"/>
<feBlend mode="normal" in2="BackgroundImageFix" result="effect1_dropShadow_1_7"/>
<feBlend mode="normal" in="SourceGraphic" in2="effect1_dropShadow_1_7" result="shape"/>
</filter>
<filter id="filter6_d_1_7" x="66" y="528.96" width="343.163" height="156.833" filterUnits="userSpaceOnUse" color-interpolation-filters="sRGB">
<feFlood flood-opacity="0" result="BackgroundImageFix"/>
<feColorMatrix in="SourceAlpha" type="matrix" values="0 0 0 0 0 0 0 0 0 0 0 0 0 0 0 0 0 0 127 0" result="hardAlpha"/>
<feOffset dx="-3" dy="8"/>
<feGaussianBlur stdDeviation="2"/>
<feColorMatrix type="matrix" values="0 0 0 0 0 0 0 0 0 0 0 0 0 0 0 0 0 0 0.25 0"/>
<feBlend mode="normal" in2="BackgroundImageFix" result="effect1_dropShadow_1_7"/>
<feBlend mode="normal" in="SourceGraphic" in2="effect1_dropShadow_1_7" result="shape"/>
</filter>
<filter id="filter7_d_1_7" x="194.78" y="558.948" width="87.2312" height="67.1875" filterUnits="userSpaceOnUse" color-interpolation-filters="sRGB">
<feFlood flood-opacity="0" result="BackgroundImageFix"/>
<feColorMatrix in="SourceAlpha" type="matrix" values="0 0 0 0 0 0 0 0 0 0 0 0 0 0 0 0 0 0 127 0" result="hardAlpha"/>
<feOffset dx="1" dy="14"/>
<feGaussianBlur stdDeviation="3"/>
<feColorMatrix type="matrix" values="0 0 0 0 0 0 0 0 0 0 0 0 0 0 0 0 0 0 0.6 0"/>
<feBlend mode="normal" in2="BackgroundImageFix" result="effect1_dropShadow_1_7"/>
<feBlend mode="normal" in="SourceGraphic" in2="effect1_dropShadow_1_7" result="shape"/>
</filter>
<filter id="filter8_d_1_7" x="139" y="357.065" width="456.454" height="267.239" filterUnits="userSpaceOnUse" color-interpolation-filters="sRGB">
<feFlood flood-opacity="0" result="BackgroundImageFix"/>
<feColorMatrix in="SourceAlpha" type="matrix" values="0 0 0 0 0 0 0 0 0 0 0 0 0 0 0 0 0 0 127 0" result="hardAlpha"/>
<feOffset dx="3" dy="14"/>
<feGaussianBlur stdDeviation="7"/>
<feColorMatrix type="matrix" values="0 0 0 0 0 0 0 0 0 0 0 0 0 0 0 0 0 0 0.36 0"/>
<feBlend mode="normal" in2="BackgroundImageFix" result="effect1_dropShadow_1_7"/>
<feBlend mode="normal" in="SourceGraphic" in2="effect1_dropShadow_1_7" result="shape"/>
</filter>
<filter id="filter9_d_1_7" x="267.56" y="198.937" width="393.188" height="291.308" filterUnits="userSpaceOnUse" color-interpolation-filters="sRGB">
<feFlood flood-opacity="0" result="BackgroundImageFix"/>
<feColorMatrix in="SourceAlpha" type="matrix" values="0 0 0 0 0 0 0 0 0 0 0 0 0 0 0 0 0 0 127 0" result="hardAlpha"/>
<feOffset dx="10" dy="41"/>
<feGaussianBlur stdDeviation="14.5"/>
<feColorMatrix type="matrix" values="0 0 0 0 0 0 0 0 0 0 0 0 0 0 0 0 0 0 0.25 0"/>
<feBlend mode="normal" in2="BackgroundImageFix" result="effect1_dropShadow_1_7"/>
<feBlend mode="normal" in="SourceGraphic" in2="effect1_dropShadow_1_7" result="shape"/>
</filter>
<filter id="filter10_d_1_7" x="269.561" y="130.945" width="343.029" height="247.401" filterUnits="userSpaceOnUse" color-interpolation-filters="sRGB">
<feFlood flood-opacity="0" result="BackgroundImageFix"/>
<feColorMatrix in="SourceAlpha" type="matrix" values="0 0 0 0 0 0 0 0 0 0 0 0 0 0 0 0 0 0 127 0" result="hardAlpha"/>
<feOffset dx="4" dy="50"/>
<feGaussianBlur stdDeviation="25"/>
<feColorMatrix type="matrix" values="0 0 0 0 0 0 0 0 0 0 0 0 0 0 0 0 0 0 0.25 0"/>
<feBlend mode="normal" in2="BackgroundImageFix" result="effect1_dropShadow_1_7"/>
<feBlend mode="normal" in="SourceGraphic" in2="effect1_dropShadow_1_7" result="shape"/>
</filter>
<filter id="filter11_d_1_7" x="389.019" y="225.178" width="84.8326" height="46.5175" filterUnits="userSpaceOnUse" color-interpolation-filters="sRGB">
<feFlood flood-opacity="0" result="BackgroundImageFix"/>
<feColorMatrix in="SourceAlpha" type="matrix" values="0 0 0 0 0 0 0 0 0 0 0 0 0 0 0 0 0 0 127 0" result="hardAlpha"/>
<feOffset dy="4"/>
<feGaussianBlur stdDeviation="2"/>
<feColorMatrix type="matrix" values="0 0 0 0 0 0 0 0 0 0 0 0 0 0 0 0 0 0 0.25 0"/>
<feBlend mode="normal" in2="BackgroundImageFix" result="effect1_dropShadow_1_7"/>
<feBlend mode="normal" in="SourceGraphic" in2="effect1_dropShadow_1_7" result="shape"/>
</filter>
<filter id="filter12_d_1_7" x="393.058" y="223.768" width="43.9703" height="30.2558" filterUnits="userSpaceOnUse" color-interpolation-filters="sRGB">
<feFlood flood-opacity="0" result="BackgroundImageFix"/>
<feColorMatrix in="SourceAlpha" type="matrix" values="0 0 0 0 0 0 0 0 0 0 0 0 0 0 0 0 0 0 127 0" result="hardAlpha"/>
<feOffset dy="2"/>
<feGaussianBlur stdDeviation="2"/>
<feColorMatrix type="matrix" values="0 0 0 0 0 0 0 0 0 0 0 0 0 0 0 0 0 0 0.25 0"/>
<feBlend mode="normal" in2="BackgroundImageFix" result="effect1_dropShadow_1_7"/>
<feBlend mode="normal" in="SourceGraphic" in2="effect1_dropShadow_1_7" result="shape"/>
</filter>
<filter id="filter13_d_1_7" x="318.561" y="72.9448" width="218.085" height="162.09" filterUnits="userSpaceOnUse" color-interpolation-filters="sRGB">
<feFlood flood-opacity="0" result="BackgroundImageFix"/>
<feColorMatrix in="SourceAlpha" type="matrix" values="0 0 0 0 0 0 0 0 0 0 0 0 0 0 0 0 0 0 127 0" result="hardAlpha"/>
<feOffset dx="3" dy="37"/>
<feGaussianBlur stdDeviation="8.5"/>
<feColorMatrix type="matrix" values="0 0 0 0 0 0 0 0 0 0 0 0 0 0 0 0 0 0 0.25 0"/>
<feBlend mode="normal" in2="BackgroundImageFix" result="effect1_dropShadow_1_7"/>
<feBlend mode="normal" in="SourceGraphic" in2="effect1_dropShadow_1_7" result="shape"/>
</filter>
<filter id="filter14_d_1_7" x="364" y="72.9603" width="91.5735" height="59.6744" filterUnits="userSpaceOnUse" color-interpolation-filters="sRGB">
<feFlood flood-opacity="0" result="BackgroundImageFix"/>
<feColorMatrix in="SourceAlpha" type="matrix" values="0 0 0 0 0 0 0 0 0 0 0 0 0 0 0 0 0 0 127 0" result="hardAlpha"/>
<feOffset dx="1" dy="2"/>
<feGaussianBlur stdDeviation="2"/>
<feColorMatrix type="matrix" values="0 0 0 0 0 0 0 0 0 0 0 0 0 0 0 0 0 0 0.17 0"/>
<feBlend mode="normal" in2="BackgroundImageFix" result="effect1_dropShadow_1_7"/>
<feBlend mode="normal" in="SourceGraphic" in2="effect1_dropShadow_1_7" result="shape"/>
</filter>
<filter id="filter15_d_1_7" x="136.03" y="275.821" width="430.281" height="229.76" filterUnits="userSpaceOnUse" color-interpolation-filters="sRGB">
<feFlood flood-opacity="0" result="BackgroundImageFix"/>
<feColorMatrix in="SourceAlpha" type="matrix" values="0 0 0 0 0 0 0 0 0 0 0 0 0 0 0 0 0 0 127 0" result="hardAlpha"/>
<feOffset dx="5" dy="37"/>
<feGaussianBlur stdDeviation="12.5"/>
<feColorMatrix type="matrix" values="0 0 0 0 0 0 0 0 0 0 0 0 0 0 0 0 0 0 0.25 0"/>
<feBlend mode="normal" in2="BackgroundImageFix" result="effect1_dropShadow_1_7"/>
<feBlend mode="normal" in="SourceGraphic" in2="effect1_dropShadow_1_7" result="shape"/>
</filter>
<filter id="filter16_b_1_7" x="125.03" y="244.821" width="442.281" height="229.76" filterUnits="userSpaceOnUse" color-interpolation-filters="sRGB">
<feFlood flood-opacity="0" result="BackgroundImageFix"/>
<feGaussianBlur in="BackgroundImageFix" stdDeviation="15.5"/>
<feComposite in2="SourceAlpha" operator="in" result="effect1_backgroundBlur_1_7"/>
<feBlend mode="normal" in="SourceGraphic" in2="effect1_backgroundBlur_1_7" result="shape"/>
</filter>
<filter id="filter17_d_1_7" x="407.243" y="368.938" width="83.4799" height="53.1174" filterUnits="userSpaceOnUse" color-interpolation-filters="sRGB">
<feFlood flood-opacity="0" result="BackgroundImageFix"/>
<feColorMatrix in="SourceAlpha" type="matrix" values="0 0 0 0 0 0 0 0 0 0 0 0 0 0 0 0 0 0 127 0" result="hardAlpha"/>
<feOffset dy="2"/>
<feGaussianBlur stdDeviation="1"/>
<feColorMatrix type="matrix" values="0 0 0 0 0 0 0 0 0 0 0 0 0 0 0 0 0 0 0.25 0"/>
<feBlend mode="normal" in2="BackgroundImageFix" result="effect1_dropShadow_1_7"/>
<feBlend mode="normal" in="SourceGraphic" in2="effect1_dropShadow_1_7" result="shape"/>
</filter>
<linearGradient id="paint0_linear_1_7" x1="113.843" y1="0.0033201" x2="375.935" y2="536.174" gradientUnits="userSpaceOnUse">
<stop/>
<stop offset="1" stop-color="#777777"/>
</linearGradient>
<linearGradient id="paint1_linear_1_7" x1="95.6608" y1="13.7917" x2="410.38" y2="504.548" gradientUnits="userSpaceOnUse">
<stop stop-color="#2E2E2E"/>
<stop offset="1" stop-color="#B1B1B1"/>
</linearGradient>
<linearGradient id="paint2_linear_1_7" x1="95.6608" y1="13.7917" x2="410.38" y2="504.548" gradientUnits="userSpaceOnUse">
<stop stop-color="#2E2E2E"/>
<stop offset="1" stop-color="#B1B1B1"/>
</linearGradient>
<linearGradient id="paint3_linear_1_7" x1="149.57" y1="3.41236e-06" x2="90.411" y2="221.586" gradientUnits="userSpaceOnUse">
<stop stop-color="#FFCCCC"/>
<stop offset="1" stop-color="#FFF4F4"/>
</linearGradient>
<linearGradient id="paint4_linear_1_7" x1="-0.771817" y1="127.649" x2="104.365" y2="-74.0822" gradientUnits="userSpaceOnUse">
<stop stop-color="#2E50C7" stop-opacity="0.97"/>
<stop offset="1" stop-color="#2848BB" stop-opacity="0.31"/>
</linearGradient>
<linearGradient id="paint5_linear_1_7" x1="363.711" y1="275.857" x2="543.773" y2="433.477" gradientUnits="userSpaceOnUse">
<stop stop-color="#2E50C7" stop-opacity="0.97"/>
<stop offset="1" stop-color="#6374AE"/>
</linearGradient>
<linearGradient id="paint6_linear_1_7" x1="81.2442" y1="2.45319e-06" x2="27.6358" y2="151.713" gradientUnits="userSpaceOnUse">
<stop stop-color="#FFCCCC"/>
<stop offset="1" stop-color="#FFF4F4"/>
</linearGradient>
<linearGradient id="paint7_linear_1_7" x1="434.78" y1="183.551" x2="406.086" y2="105.248" gradientUnits="userSpaceOnUse">
<stop stop-color="white" stop-opacity="0.13"/>
<stop offset="1" stop-color="#C4C4C4" stop-opacity="0"/>
</linearGradient>
<linearGradient id="paint8_linear_1_7" x1="65.7261" y1="0" x2="65.7261" y2="105.354" gradientUnits="userSpaceOnUse">
<stop stop-color="white" stop-opacity="0.94"/>
<stop offset="1" stop-color="white"/>
</linearGradient>
<linearGradient id="paint9_linear_1_7" x1="420.465" y1="109.282" x2="391.709" y2="31.0028" gradientUnits="userSpaceOnUse">
<stop stop-color="white" stop-opacity="0.24"/>
<stop offset="1" stop-color="#C4C4C4" stop-opacity="0"/>
</linearGradient>
<linearGradient id="paint10_linear_1_7" x1="235.83" y1="576.786" x2="149.014" y2="352.892" gradientUnits="userSpaceOnUse">
<stop stop-color="white" stop-opacity="0.25"/>
<stop offset="1" stop-color="#C4C4C4" stop-opacity="0"/>
</linearGradient>
<clipPath id="clip0_1_7">
<rect width="342.324" height="574.146" rx="45" transform="matrix(0.948692 0.316203 -0.707138 0.707076 426 204.96)" fill="white"/>
</clipPath>
<clipPath id="clip1_1_7">
<rect width="300.916" height="70.2649" rx="16" transform="matrix(0.948692 0.316203 -0.707138 0.707076 122.687 528.96)" fill="white"/>
</clipPath>
<clipPath id="clip2_1_7">
<rect width="299.14" height="204.575" rx="16" transform="matrix(0.948692 0.316203 -0.707138 0.707076 294.662 357.065)" fill="white"/>
</clipPath>
<clipPath id="clip3_1_7">
<rect width="50.4292" height="50.53" fill="white" transform="matrix(0.948692 0.316203 -0.707138 0.707076 402.732 74.9603)"/>
</clipPath>
<clipPath id="clip4_1_7">
<rect width="48" height="48" rx="12" transform="matrix(0.948692 0.316203 -0.707138 0.707076 443.185 368.938)" fill="white"/>
</clipPath>
<clipPath id="clip5_1_7">
<rect width="24" height="24" fill="white" transform="matrix(0.948692 0.316203 -0.707138 0.707076 446.084 381.218)"/>
</clipPath>
</defs>
</svg>
