<?xml version="1.0" encoding="utf-8"?>
<!-- Generator: Adobe Illustrator 26.0.3, SVG Export Plug-In . SVG Version: 6.00 Build 0)  -->
<svg version="1.0" id="Layer_1" xmlns="http://www.w3.org/2000/svg" xmlns:xlink="http://www.w3.org/1999/xlink" x="0px" y="0px"
	 viewBox="0 0 338 240" style="enable-background:new 0 0 338 240;" xml:space="preserve">
<style type="text/css">
	.st0{fill:#612E87;}
	.st1{fill:#EF6719;}
	.st2{fill:#FEFEFE;}
	.st3{fill:#FFFFFF;}
</style>
<rect x="48" y="57.3" class="st0" width="242" height="125.3"/>
<path class="st1" d="M120.9,67.9c-23.6,0-42.7,19.1-42.7,42.7s19.1,42.7,42.7,42.7s42.7-19.1,42.7-42.7l0,0
	C163.7,87,144.5,67.9,120.9,67.9"/>
<path class="st0" d="M116.5,126.1c-1.6,0-3-1-3.5-2.5l-2.2-5.1H96.6l-2.3,5.3c-0.5,1.4-1.9,2.2-3.3,2.2c-1.8,0-3.3-1.5-3.3-3.3
	c0,0,0,0,0-0.1c0-0.5,0.2-1,0.4-1.5l11.3-25.5c0.7-1.7,2.3-2.9,4.2-2.8h0.4c1.8,0,3.5,1.1,4.1,2.8l11.3,25.5
	c0.9,1.6,0.2,3.6-1.4,4.5C117.5,126,117,126.1,116.5,126.1L116.5,126.1z"/>
<polygon class="st1" points="99.2,112.3 108.2,112.3 103.7,101.6 "/>
<path class="st0" d="M150.6,111.7c0,9.8-5.5,14.6-14.2,14.6c-8.7,0-14-4.9-14-14.4V96.7c-0.1-2,1.4-3.6,3.4-3.8
	c2-0.1,3.6,1.4,3.8,3.4c0,0.1,0,0.3,0,0.4v15c0,5.3,2.6,8,7,8s7-2.6,7-7.8V96.7c-0.1-2,1.4-3.6,3.4-3.8c2-0.1,3.6,1.4,3.8,3.4
	c0,0.1,0,0.3,0,0.4L150.6,111.7z"/>
<path class="st2" d="M174,88.4l4.8-10.8c0.3-0.7,1-1.2,1.8-1.2h0.2c0.8,0,1.5,0.5,1.8,1.2l4.8,10.8c0.1,0.2,0.2,0.4,0.2,0.6
	c0,0.8-0.6,1.4-1.4,1.5c0,0,0,0,0,0c-0.6,0-1.2-0.4-1.5-1l-0.9-2.2h-6.1l-1,2.2c-0.2,0.6-0.8,1-1.4,1c-0.8,0-1.4-0.6-1.4-1.4
	c0,0,0,0,0,0C173.8,88.9,173.8,88.7,174,88.4 M182.5,84.7l-1.9-4.5l-1.9,4.5H182.5z"/>
<path class="st2" d="M188.5,84.5V78c0.1-0.8,0.9-1.4,1.7-1.3c0.6,0.1,1.1,0.6,1.3,1.3v6.4c0,2.2,1.1,3.4,3,3.4s3-1.1,3-3.3V78
	c0.1-0.8,0.9-1.4,1.7-1.3c0.6,0.1,1.1,0.6,1.3,1.3v6.4c0,4.2-2.3,6.2-6,6.2S188.5,88.5,188.5,84.5"/>
<path class="st2" d="M174.3,106.7c-0.6-0.5-0.8-1.3-0.3-2c0.3-0.4,0.7-0.6,1.1-0.6c0.3,0,0.6,0.1,0.9,0.3c1,0.8,2.2,1.2,3.5,1.2
	c1.2,0,2-0.5,2-1.3l0,0c0-0.8-0.5-1.2-2.8-1.8c-2.8-0.7-4.6-1.5-4.6-4.2l0,0c0-2.5,2-4.1,4.8-4.1c1.5,0,3.1,0.4,4.4,1.2
	c0.4,0.3,0.7,0.7,0.7,1.2c0,0.8-0.6,1.4-1.4,1.4c0,0,0,0,0,0c-0.3,0-0.5-0.1-0.8-0.2C181,97.3,180,97,179,97c-1.2,0-1.8,0.5-1.8,1.2
	l0,0c0,0.9,0.6,1.2,3,1.8c2.8,0.7,4.4,1.7,4.4,4.1l0,0c0,2.7-2.1,4.3-5.1,4.3C177.7,108.4,175.9,107.8,174.3,106.7"/>
<path class="st2" d="M186.4,95.8c0-0.8,0.7-1.5,1.5-1.5c0,0,0,0,0,0h0.3c0.6,0,1.1,0.3,1.4,0.8l3.7,5.9l3.7-6
	c0.3-0.5,0.8-0.8,1.4-0.8h0.3c0.8,0,1.5,0.7,1.5,1.5c0,0,0,0,0,0v10.9c0.1,0.8-0.5,1.6-1.3,1.7s-1.6-0.5-1.7-1.3c0-0.1,0-0.2,0-0.3
	v-6.9l-2.7,4.1c-0.4,0.7-1.2,1-1.9,0.6c-0.3-0.1-0.5-0.3-0.6-0.6l-2.6-4v6.8c0,0.8-0.7,1.5-1.5,1.5c0,0,0,0,0,0
	c-0.8,0-1.5-0.6-1.5-1.4c0,0,0,0,0,0V95.8z"/>
<path class="st2" d="M201.9,106.2l4.8-10.8c0.3-0.7,1-1.2,1.8-1.2h0.2c0.8,0,1.5,0.5,1.8,1.2l4.8,10.8c0.1,0.2,0.1,0.4,0.1,0.6
	c0,0.8-0.6,1.4-1.4,1.5c0,0,0,0,0,0c-0.7,0-1.2-0.4-1.4-1.1l-0.9-2.2h-6.1l-1,2.3c-0.2,0.6-0.8,1-1.4,1c-0.8,0-1.4-0.6-1.4-1.4
	c0,0,0,0,0,0C201.7,106.7,201.8,106.5,201.9,106.2 M210.4,102.5l-1.9-4.5l-1.9,4.5H210.4z"/>
<path class="st2" d="M216.9,95.8c-0.1-0.8,0.4-1.6,1.3-1.7c0.8-0.1,1.6,0.4,1.7,1.3c0,0.2,0,0.3,0,0.5v9.6h5.6
	c0.8-0.1,1.4,0.5,1.5,1.3c0.1,0.8-0.5,1.4-1.3,1.5c-0.1,0-0.2,0-0.2,0h-7.1c-0.8,0-1.5-0.7-1.5-1.5c0,0,0,0,0,0L216.9,95.8z"/>
<path class="st2" d="M228.3,95.8c-0.1-0.8,0.4-1.6,1.3-1.7c0.8-0.1,1.6,0.4,1.7,1.3c0,0.2,0,0.3,0,0.5v9.6h5.6
	c0.8,0.1,1.3,0.7,1.3,1.5c-0.1,0.7-0.6,1.2-1.3,1.3h-7.1c-0.8,0-1.5-0.7-1.5-1.5c0,0,0,0,0,0L228.3,95.8z"/>
<path class="st2" d="M173.8,113.7c0-0.8,0.7-1.5,1.5-1.5c0,0,0,0,0,0h7.7c0.8-0.1,1.4,0.5,1.5,1.3c0.1,0.8-0.5,1.4-1.3,1.5
	c-0.1,0-0.2,0-0.2,0h-6.2v2.9h5.3c0.8,0.1,1.3,0.7,1.3,1.5c-0.1,0.7-0.6,1.2-1.3,1.3h-5.3v3.9c-0.1,0.8-0.9,1.4-1.7,1.3
	c-0.6-0.1-1.1-0.6-1.3-1.3L173.8,113.7z"/>
<path class="st2" d="M186,113.6c0.1-0.8,0.9-1.4,1.7-1.3c0.6,0.1,1.1,0.6,1.3,1.3v11c-0.1,0.8-0.9,1.4-1.7,1.3
	c-0.6-0.1-1.1-0.6-1.3-1.3V113.6z"/>
<path class="st2" d="M191.7,113.7c0-0.8,0.7-1.5,1.5-1.5c0,0,0,0,0,0h0.3c0.6,0,1.2,0.3,1.6,0.9l5.8,7.7v-7.1c0-0.8,0.7-1.5,1.5-1.5
	s1.5,0.7,1.5,1.5v11c0,0.8-0.7,1.5-1.5,1.5c0,0,0,0,0,0h-0.1c-0.6,0-1.2-0.3-1.6-0.9l-6.1-7.9v7.4c0,0.8-0.7,1.5-1.5,1.5
	s-1.5-0.7-1.5-1.5L191.7,113.7z"/>
<path class="st2" d="M205.7,124l4.8-10.8c0.3-0.7,1-1.2,1.8-1.2h0.2c0.8,0,1.5,0.5,1.8,1.2L219,124c0.1,0.2,0.2,0.4,0.2,0.6
	c0,0.8-0.6,1.4-1.4,1.4c0,0,0,0,0,0c-0.6,0-1.2-0.4-1.4-1l-0.9-2.2h-6.1l-1,2.3c-0.2,0.6-0.8,0.9-1.4,0.9c-0.8,0-1.4-0.6-1.4-1.4
	c0,0,0,0,0,0C205.5,124.5,205.6,124.2,205.7,124 M214.2,120.2l-1.9-4.5l-1.9,4.5H214.2z"/>
<path class="st2" d="M220.7,113.7c0-0.8,0.7-1.5,1.5-1.5c0,0,0,0,0,0h0.3c0.6,0,1.2,0.3,1.6,0.9l5.8,7.7v-7.1c0-0.8,0.7-1.5,1.5-1.5
	s1.5,0.7,1.5,1.5v11c0,0.8-0.7,1.5-1.5,1.5c0,0,0,0,0,0h-0.1c-0.6,0-1.2-0.3-1.6-0.9l-6.1-7.9v7.4c0,0.8-0.7,1.5-1.5,1.5
	s-1.5-0.7-1.5-1.5V113.7z"/>
<path class="st2" d="M234.8,119.1L234.8,119.1c-0.1-3.9,3-7.1,6.9-7.1c0.1,0,0.2,0,0.3,0c1.6-0.1,3.3,0.4,4.6,1.4
	c0.4,0.3,0.6,0.7,0.6,1.2c0,0.8-0.7,1.5-1.5,1.5c0,0,0,0,0,0c-0.3,0-0.6-0.1-0.9-0.3c-0.8-0.6-1.8-1-2.8-1c-2.3,0-4,1.9-4,4.2
	c0,0,0,0.1,0,0.1l0,0c-0.1,2.2,1.6,4.2,3.8,4.3c0.1,0,0.1,0,0.2,0c1.1,0,2.2-0.4,3-1.1c0.3-0.2,0.6-0.3,0.9-0.3
	c0.8,0,1.4,0.6,1.4,1.4c0,0.4-0.2,0.8-0.5,1.1c-3,2.6-7.6,2.2-10.2-0.8C235.5,122.4,234.9,120.8,234.8,119.1"/>
<path class="st2" d="M249.2,124.5v-10.7c0-0.8,0.7-1.5,1.5-1.5c0,0,0,0,0,0h7.7c0.8,0,1.4,0.6,1.4,1.4l0,0c0,0.7-0.6,1.3-1.3,1.3
	c0,0,0,0,0,0h-6.2v2.8h5.2c0.8,0,1.4,0.6,1.4,1.4l0,0c0,0.7-0.6,1.3-1.3,1.3c0,0,0,0,0,0h-5.2v2.9h6.2c0.8,0,1.4,0.6,1.4,1.4l0,0
	c0,0.7-0.6,1.3-1.3,1.3c0,0,0,0,0,0h-7.7C249.8,126,249.2,125.3,249.2,124.5C249.2,124.5,249.2,124.5,249.2,124.5"/>
<path class="st2" d="M173.8,131.6c0-0.8,0.7-1.5,1.5-1.5c0,0,0,0,0,0h4.9c1.3-0.1,2.6,0.4,3.6,1.2c0.6,0.6,1,1.5,0.9,2.3l0,0
	c0,1.3-0.7,2.4-1.8,3c1.6,0.6,2.6,1.5,2.6,3.4l0,0c0,2.5-2,3.8-5.1,3.8h-5c-0.8,0-1.5-0.7-1.5-1.5c0,0,0,0,0,0L173.8,131.6z
	 M179.5,135.7c1.3,0,2.2-0.4,2.2-1.4l0,0c0-0.9-0.7-1.4-2-1.4h-3v2.9L179.5,135.7z M180.3,141.2c1.3,0,2.1-0.5,2.1-1.5l0,0
	c0-0.9-0.7-1.5-2.2-1.5h-3.5v3L180.3,141.2z"/>
<path class="st2" d="M186.4,141.8l4.8-10.8c0.3-0.7,1-1.2,1.8-1.2h0.2c0.8,0,1.5,0.5,1.8,1.2l4.8,10.8c0.4,0.7,0.1,1.5-0.6,1.9
	c-0.2,0.1-0.4,0.2-0.7,0.2c-0.6,0-1.2-0.4-1.4-1l-0.9-2.2H190l-1,2.3c-0.2,0.6-0.8,0.9-1.4,0.9c-0.8,0-1.4-0.6-1.4-1.4c0,0,0,0,0,0
	C186.2,142.3,186.3,142.1,186.4,141.8 M194.9,138.1l-1.9-4.6l-1.9,4.5L194.9,138.1z"/>
<path class="st2" d="M201.4,131.5c0-0.8,0.7-1.5,1.5-1.5c0,0,0,0,0,0h0.3c0.6,0,1.2,0.3,1.6,0.9l5.8,7.7v-7.1c0-0.8,0.7-1.5,1.5-1.5
	s1.5,0.7,1.5,1.5v10.9c0,0.8-0.7,1.5-1.5,1.5c0,0,0,0,0,0h-0.1c-0.6,0-1.2-0.3-1.6-0.9l-6.1-8v7.4c0,0.8-0.7,1.5-1.5,1.5
	s-1.5-0.7-1.5-1.5L201.4,131.5z"/>
<path class="st2" d="M216.2,131.4c0.1-0.8,0.8-1.4,1.7-1.3c0.7,0.1,1.2,0.6,1.3,1.3v4.6l5.6-5.5c0.3-0.4,0.8-0.6,1.3-0.6
	c0.8,0,1.4,0.6,1.4,1.3c0,0,0,0,0,0.1c0,0.4-0.2,0.9-0.6,1.1l-3.9,3.7l4.2,5.3c0.3,0.3,0.4,0.7,0.4,1.1c0,0.8-0.6,1.5-1.4,1.5
	c0,0-0.1,0-0.1,0c-0.5,0-1-0.3-1.3-0.7l-3.9-5.2l-1.7,1.6v2.8c-0.1,0.8-0.8,1.4-1.7,1.3c-0.7-0.1-1.2-0.6-1.3-1.3L216.2,131.4z"/>
<rect x="48" y="163.9" class="st1" width="242" height="18.8"/>
<path class="st3" d="M203.1,179.5c0.2,0.2,0.3,0.4,0.3,0.7c0,0.3-0.1,0.5-0.3,0.7c-0.2,0.2-0.4,0.3-0.6,0.3c-0.2,0-0.5-0.1-0.6-0.3
	c-0.2-0.2-0.3-0.4-0.2-0.7c0-0.3,0.1-0.5,0.2-0.7c0.2-0.2,0.4-0.3,0.6-0.3C202.7,179.2,203,179.3,203.1,179.5 M203.6,175.6
	c0.1,0.1,0.2,0.1,0.4,0.1c0.1,0,0.3-0.1,0.4-0.1c0.1-0.1,0.1-0.2,0.1-0.4c0-0.1-0.1-0.3-0.1-0.4c-0.1-0.1-0.2-0.2-0.4-0.1
	c-0.1,0-0.3,0.1-0.4,0.1c-0.1,0.1-0.1,0.2-0.1,0.4C203.4,175.4,203.5,175.5,203.6,175.6z M199.4,165.6c0.1-0.1,0.3-0.2,0.5-0.2
	c0.2,0,0.4,0.2,0.7,0.5l0.5,0.5l3.1,3l0,0h1.2c0.7,0.1,0.7,1.2,0,1.2h-1.2v2.3c0,0.2,0,0.3-0.1,0.4c-0.1,0.1-0.2,0.2-0.3,0.1
	c-0.2-0.1-0.5-0.1-0.7-0.1c-0.3,0-0.6,0-0.9-0.1c-0.6,0-1.3,0.1-1.8,0.5c-0.4,0.2-0.7,0.6-0.8,1.1c0,0.5,0.2,0.9,0.6,1.2
	c0.4,0.3,0.9,0.5,1.5,0.5c0.2,0,0.5,0,0.7-0.1c0.2-0.1,0.4-0.2,0.6-0.3c-0.1-0.1-0.2-0.2-0.3-0.4c-0.1-0.2-0.1-0.3-0.1-0.5
	c0-0.4,0.1-0.7,0.4-0.9c0.3-0.3,0.6-0.4,1-0.4c0.4,0,0.7,0.1,1,0.4c0.3,0.2,0.4,0.6,0.4,0.9c0,0.7-0.4,1.4-1,1.8
	c-0.7,0.5-1.6,0.8-2.5,0.7c-0.9,0-1.8-0.3-2.5-0.9c-0.6-0.5-1-1.3-1-2.1c0-0.8,0.5-1.6,1.2-2c0.8-0.6,1.8-0.9,2.8-0.8h0.7v-1.4H197
	v6.5c0,0.2-0.1,0.4-0.2,0.5c-0.1,0.1-0.3,0.2-0.5,0.2c-0.2,0-0.4-0.1-0.5-0.2c-0.1-0.1-0.2-0.3-0.2-0.5v-0.9
	c-0.2,0.2-0.5,0.4-0.8,0.5c-0.4,0.1-0.8,0.2-1.3,0.2c-0.7,0-1.5-0.2-2-0.7c-0.5-0.4-0.8-1.1-0.8-1.7c0-0.8,0.3-1.5,0.9-2
	c0.6-0.5,1.3-0.8,2.1-0.8c0.3,0,0.6,0.1,0.9,0.2c0.2,0.1,0.4,0.4,0.4,0.6c0,0.1-0.1,0.3-0.2,0.4c-0.1,0.1-0.3,0.2-0.5,0.2h-1.1
	l2.2,1.8c0.1-0.1,0.1-0.2,0.2-0.3c0-0.1,0.1-0.2,0.1-0.3v-3.7H190c-0.3,0-0.6-0.4-0.5-0.7c0-0.3,0.3-0.5,0.5-0.5h12.6l0,0l-2.7-2.6
	l-0.4-0.4c-0.2-0.2-0.3-0.3-0.3-0.4C199.2,165.8,199.3,165.7,199.4,165.6L199.4,165.6z M204.4,166.4c0.3,0.3,0.3,0.7,0,1
	c0,0,0,0,0,0c-0.1,0.1-0.3,0.2-0.5,0.2c-0.2,0-0.4-0.1-0.5-0.2c-0.3-0.3-0.3-0.7,0-1c0,0,0,0,0,0c0.1-0.1,0.3-0.2,0.5-0.2
	C204.1,166.2,204.3,166.3,204.4,166.4z M192.1,174c-0.1,0.2-0.1,0.3-0.1,0.5c0,0.3,0.2,0.7,0.4,0.9c0.3,0.2,0.6,0.4,1,0.4
	c0.2,0,0.5,0,0.7-0.1c0.2,0,0.3-0.1,0.5-0.2l-2.3-1.9C192.2,173.7,192.2,173.9,192.1,174z M179.9,165.6c0.1-0.1,0.3-0.2,0.5-0.2
	c0.2,0,0.4,0.2,0.7,0.5l0.5,0.5l3.2,3.1h-1.8l-2.8-2.6c-0.1-0.1-0.2-0.2-0.4-0.4s-0.3-0.3-0.3-0.4
	C179.7,165.9,179.7,165.7,179.9,165.6z M166.5,169.7c0.5,0.3,0.8,0.9,0.9,1.5c0,0.4-0.1,0.8-0.3,1.1c-0.2,0.3-0.5,0.6-0.8,0.8
	c0.4,0.3,0.8,0.6,1.1,1c0.3,0.3,0.4,0.7,0.4,1.2c0,0.7-0.3,1.4-0.9,1.9c-0.6,0.5-1.4,0.8-2.2,0.8c-0.9,0-1.9-0.3-2.6-0.9
	c-0.7-0.4-1.1-1.1-1.1-1.9c0-0.2,0.1-0.3,0.2-0.4c0.1-0.1,0.3-0.2,0.4-0.2c0.2,0,0.4,0.1,0.5,0.2c0.2,0.1,0.3,0.3,0.4,0.6
	c0.1,0.4,0.4,0.8,0.8,1c0.4,0.3,0.9,0.4,1.4,0.4c0.5,0,0.9-0.2,1.2-0.5c0.3-0.3,0.5-0.7,0.5-1.1c0-0.4-0.2-0.7-0.5-0.9
	c-0.4-0.3-0.8-0.4-1.2-0.4c-0.2,0-0.4-0.1-0.6-0.2c-0.2-0.1-0.3-0.3-0.2-0.5c0-0.2,0.1-0.3,0.2-0.4c0.2-0.1,0.4-0.2,0.6-0.1
	c0.4,0,0.7-0.1,1-0.4c0.3-0.2,0.4-0.5,0.4-0.9c0-0.3-0.2-0.6-0.5-0.8c-0.3-0.2-0.7-0.3-1.1-0.3c-0.3,0-0.6,0-0.9,0.1
	c-0.3,0.1-0.5,0.2-0.8,0.3c-0.2,0.1-0.4,0.1-0.6,0c-0.2-0.1-0.3-0.3-0.3-0.5c0-0.3,0.2-0.6,0.7-0.8c0.6-0.2,1.2-0.3,1.8-0.3
	C165.2,169.1,165.9,169.3,166.5,169.7z M186.2,169.4c0.3,0.1,0.6,0.4,0.5,0.8c-0.1,0.2-0.2,0.4-0.5,0.5h-1.3v6.5
	c0,0.2-0.1,0.4-0.2,0.5c-0.1,0.1-0.3,0.2-0.5,0.2c-0.2,0-0.4-0.1-0.5-0.2c-0.1-0.1-0.2-0.3-0.2-0.5v-6.5h-2.4c0.2,0.3,0.4,0.6,0.6,1
	c0.1,0.4,0.2,0.8,0.2,1.2c0,0.8-0.4,1.6-1,2.2c-0.7,0.6-1.5,0.9-2.4,0.9c-0.6,0-1.2-0.2-1.7-0.6c-0.5-0.4-0.7-0.9-0.7-1.5
	c0-0.4,0.2-0.8,0.5-1.1c0.3-0.3,0.7-0.5,1.1-0.5c0.3,0,0.6,0.1,0.9,0.2c0.2,0.1,0.3,0.4,0.4,0.6c0,0.2-0.1,0.4-0.2,0.6
	c-0.1,0.1-0.3,0.2-0.5,0.2c-0.2,0-0.3,0-0.5,0c-0.1,0-0.2-0.1-0.4-0.1c0,0.3,0.1,0.5,0.3,0.6c0.2,0.2,0.5,0.3,0.8,0.2
	c0.5,0,1-0.2,1.4-0.5c0.4-0.3,0.6-0.8,0.6-1.3c0-0.5-0.2-1.1-0.5-1.5c-0.3-0.4-0.8-0.6-1.3-0.6h-4v6.5c0,0.2-0.1,0.4-0.2,0.5
	c-0.1,0.1-0.3,0.2-0.5,0.2c-0.2,0-0.4-0.1-0.5-0.2c-0.1-0.1-0.2-0.3-0.2-0.5v-6.5h-2.1v6.5c0,0.2-0.1,0.4-0.2,0.5
	c-0.1,0.1-0.3,0.2-0.5,0.2c-0.2,0-0.4-0.1-0.5-0.2c-0.1-0.1-0.2-0.3-0.2-0.5v-3h-1.5c-0.2,0-0.4-0.1-0.5-0.2
	c-0.1-0.1-0.2-0.3-0.2-0.4c0-0.2,0.1-0.3,0.2-0.4c0.1-0.1,0.3-0.2,0.5-0.2h1.5v-2.2h-0.7c-0.2,0-0.3-0.1-0.5-0.2
	c-0.1-0.1-0.2-0.3-0.2-0.4c0-0.2,0.1-0.3,0.2-0.4c0.1-0.1,0.3-0.2,0.5-0.2L186.2,169.4L186.2,169.4z M157.1,170.6h-1.3v6.5
	c0,0.2-0.1,0.4-0.2,0.5c-0.1,0.1-0.3,0.2-0.5,0.2c-0.2,0-0.4-0.1-0.5-0.2c-0.1-0.1-0.2-0.3-0.2-0.5v-6.5h-2.1v6.5
	c0,0.2-0.1,0.4-0.2,0.5c-0.1,0.1-0.3,0.2-0.5,0.2c-0.2,0-0.4-0.1-0.5-0.2c-0.1-0.1-0.2-0.3-0.2-0.5v-3c0-0.3-0.2-0.5-0.4-0.6
	c-0.3-0.2-0.7-0.3-1-0.2c-0.3,0-0.6,0.1-0.8,0.3c-0.2,0.2-0.4,0.4-0.5,0.7c0,0.1-0.1,0.2-0.2,0.3c-0.1,0.1-0.2,0.1-0.3,0.1
	c-0.2,0-0.5-0.2-0.5-0.4c-0.1-0.3-0.3-0.6-0.6-0.7c-0.3-0.2-0.6-0.3-1-0.3c-0.4,0-0.8,0.2-1.1,0.5c-0.3,0.3-0.5,0.7-0.5,1.1
	c0,0.5,0.2,0.9,0.6,1.2c0.4,0.3,0.8,0.5,1.3,0.5c0.2,0,0.4,0.1,0.5,0.2c0.1,0.1,0.2,0.3,0.2,0.5c0,0.1-0.1,0.3-0.3,0.4
	c-0.2,0.1-0.5,0.2-0.7,0.1c-0.8,0-1.5-0.3-2.1-0.9c-0.6-0.6-0.9-1.3-0.9-2.1c0-0.8,0.3-1.5,0.9-2c0.6-0.5,1.3-0.8,2.1-0.8
	c0.4,0,0.8,0.1,1.2,0.2c0.3,0.2,0.7,0.4,0.9,0.7c0.2-0.3,0.5-0.5,0.8-0.7c0.4-0.2,0.8-0.3,1.2-0.2c0.2,0,0.4,0,0.7,0.1
	c0.2,0,0.4,0.1,0.6,0.2v-1.6h-9.7v6.5c0,0.2-0.1,0.4-0.2,0.5c-0.1,0.1-0.3,0.2-0.4,0.2c-0.2,0-0.4-0.1-0.6-0.2
	c-0.1-0.1-0.2-0.3-0.2-0.5v-0.9c-0.2,0.2-0.5,0.4-0.8,0.5c-0.4,0.1-0.8,0.2-1.2,0.2c-0.7,0-1.4-0.3-2-0.7c-0.5-0.4-0.8-1.1-0.8-1.7
	c0-0.3,0-0.5,0.1-0.8c0.1-0.2,0.2-0.5,0.4-0.6h-1.9c-0.2,0-0.4-0.1-0.5-0.2c-0.1-0.1-0.2-0.3-0.2-0.4c0-0.2,0.1-0.3,0.2-0.4
	c0.1-0.1,0.3-0.2,0.5-0.2h4.9c0.2,0,0.3,0.1,0.5,0.2c0.1,0.1,0.2,0.3,0.2,0.4c0,0.2-0.1,0.3-0.2,0.4c-0.1,0.1-0.3,0.2-0.5,0.2h-0.7
	c-0.8,0-1.4,0.6-1.4,1.4c0,0.3,0.2,0.7,0.5,0.9c0.3,0.2,0.7,0.4,1.1,0.4c0.5,0,1-0.1,1.3-0.4c0.3-0.2,0.6-0.6,0.6-1v-3.7h-7.3
	c-0.3,0-0.6-0.4-0.5-0.7c0-0.3,0.3-0.5,0.5-0.5H154l0,0l-2.7-2.6l-0.4-0.4c-0.2-0.2-0.3-0.3-0.3-0.4c0-0.2,0.1-0.4,0.2-0.5
	c0.1-0.1,0.3-0.2,0.5-0.2c0.2,0,0.4,0.2,0.8,0.5l0.5,0.5l3.2,3l0,0h1.4C157.7,169.6,157.7,170.6,157.1,170.6z"/>
</svg>
