<?xml version="1.0" encoding="UTF-8"?>
<svg id="Logo" xmlns="http://www.w3.org/2000/svg" viewBox="0 0 507.4 90.93">
  <defs>
    <style>
      .cls-1 {
        fill: #004fb6;
      }

      .cls-1, .cls-2, .cls-3 {
        stroke-width: 0px;
      }

      .cls-2 {
        fill: #59b337;
      }

      .cls-3 {
        fill: #ffd900;
      }
    </style>
  </defs>
  <path class="cls-1" d="M298.3,2.36c1.62.29,7.45,1.99,7.45,6.13v66.32h19.71V0h-27.17v2.36Z"/>
  <path class="cls-1" d="M143.28,0v2.36c2.39.5,7.56,1.94,5.47,6.61l-29.4,65.84h15.53l9.21-20.52h32.57l8.05,20.52h20.43L175.95,0h-32.67ZM148.26,45l13.21-29.43,11.54,29.43h-24.75Z"/>
  <path class="cls-1" d="M445.54,0v2.36c2.38.5,7.57,1.94,5.46,6.61l-29.39,65.84h15.53l9.19-20.52h32.57l8.06,20.52h20.44L478.21,0h-32.66ZM450.52,45l13.2-29.43,11.54,29.43h-24.75Z"/>
  <path class="cls-1" d="M393.1,74.82L424.27,0h-14.74l-22.86,54.86L364.92,0h-27.71v2.36c3.2.61,6.79,1.99,8.43,6.13l26.3,66.32h21.16Z"/>
  <path class="cls-1" d="M256.44,74.82L287.63,0h-14.75l-22.86,54.86L228.26,0h-27.7v2.36c3.21.61,6.79,1.99,8.44,6.13l26.28,66.32h21.17Z"/>
  <g>
    <path class="cls-3" d="M73.27,75.33L65.95,0h0l-7.42,76.57c4.81-.53,9.73-.95,14.74-1.25"/>
    <path class="cls-2" d="M91.15,74.78L91.18.01h-25.22s0,0,0,0l7.31,75.32c5.84-.34,11.8-.54,17.89-.55"/>
    <path class="cls-1" d="M58.52,76.58L65.95.01h0S0,.01,0,.01l.03,90.92c15.49-6.77,35.66-11.82,58.49-14.35"/>
  </g>
</svg>