<?xml version="1.0" encoding="utf-8"?>
<!-- Generator: Adobe Illustrator 21.1.0, SVG Export Plug-In . SVG Version: 6.00 Build 0)  -->
<svg version="1.1" id="Layer_1" xmlns="http://www.w3.org/2000/svg" xmlns:xlink="http://www.w3.org/1999/xlink" x="0px" y="0px"
	 viewBox="0 0 468.3 300" style="enable-background:new 0 0 468.3 300;" xml:space="preserve">
<style type="text/css">
	.st0{fill:#2F2F7E;}
	.st1{fill:#136D38;}
	.st2{fill:#EE3424;}
	.st3{fill:none;}
</style>
<title>Goods and Service Tax Network</title>
<g>
	<path class="st0" d="M248,1.4c0,0,5.5,30.8-23.7,37S123.9,21.1,66.4,94.6c-55.8,71.3-26.2,152.1,30.1,166.2c3,0.7,6,1.1,9.1,1.1
		h55.9c0.9,0,1.9-0.1,2.8-0.2c5-0.9,20.3-4.7,22.4-20.1v-15.1c0.1-3.5-1.2-6.8-3.6-9.4c-2.7-2.6-6-4.6-9.6-5.7
		c-1.2-0.4-2.5-0.6-3.8-0.6h-33.7c-6.4,0-12.6-2.2-17.5-6.3c-16.7-13.6-46.7-48.6,4-98.6c0,0,16.3-14.4,38.7-15.1s97.8,0,97.8,0
		s46.4,5.5,39.4,56.3s-26.1,133.8-26.1,133.8s-4.3,17.5-23.7,16.9h-14.8l30.8-154.2c0.1-1.5,0.1-2.9,0-4.4c0-3.8-4-13.3-14.1-13
		c-0.9,0-1.7,0-2.6,0l-97.1-0.6c0,0-30.4,9.5-24,37.2s47.4,2.5,69.8,17.8s34.1,36.6,18.8,73.8c-0.2,0.4-0.4,0.9-0.7,1.3
		c-15.6,29.5-39.9,38.5-50.5,41.1c-2.7,0.7-5.5,1-8.3,1H97.2c-5.7,0-11.4-1-16.8-3.1c-30-11.6-120.5-58.9-60-191.8
		c0.9-2,1.9-3.9,3.1-5.7c9.5-15.9,58-84.9,150-95.8L248,1.4z"/>
	<path class="st1" d="M358,93.7c5.6-3.9,13.4-5.6,22.1,3.6c2.9,3.2,5,7.1,6,11.3l22,85.3c0,0,3.7,14.1,7.4,0S436,90.6,436,90.6
		s35-7.1,30.4,22.1c0,0.2-0.1,0.4-0.2,0.7c-7.9,30.9-34.9,171.5-34.9,171.5c-0.7,2.8-2,5.5-3.8,7.8c-9.1,11.4-26.8,9.5-33.1-5.5
		c-0.7-1.8-1.2-3.6-1.4-5.5c-2.3-15.4-22.9-87.4-22.9-87.4s-3.7-8.2-6.5,0s-20,103.5-20,103.5s-28.3,8.2-32.2-16.1
		c-0.4-2.6-0.3-5.3,0.3-7.9l36-164.4C349.1,103.1,352.8,97.5,358,93.7z"/>
	<polygon class="st2" points="339,0 361.4,0 331.4,22.1 351,42 327.3,42 307.4,22.4 	"/>
	<polygon class="st2" points="295.7,0 318.1,0 288.1,22.1 307.7,42 284,42 264.1,22.4 	"/>
	<polygon class="st2" points="380.6,0 406,0 425.6,19.6 392.3,42 370.2,42 401.3,21 	"/>
	<polygon class="st2" points="423.3,0 448.7,0 468.3,19.6 435,42 412.9,42 444,21 	"/>
</g>
<rect x="0" class="st3" width="468.3" height="300"/>
</svg>
